<svg id="svg" version="1.1" xmlns="http://www.w3.org/2000/svg" xmlns:xlink="http://www.w3.org/1999/xlink" width="400" height="400" viewBox="0, 0, 400,400"><g id="svgg"><path id="path0" d="M174.708 58.910 L 174.600 82.421 145.327 82.405 C 125.986 82.395,115.968 82.527,115.803 82.795 C 115.665 83.018,115.373 83.200,115.153 83.200 C 114.933 83.200,114.864 83.020,115.000 82.800 C 115.136 82.580,114.864 82.400,114.397 82.400 C 113.728 82.400,113.600 82.571,113.800 83.200 C 113.980 83.768,113.872 84.000,113.427 84.000 C 112.325 84.000,112.493 122.104,113.600 123.292 C 114.040 123.764,114.403 123.982,114.406 123.775 C 114.409 123.569,114.583 123.670,114.791 124.000 C 115.123 124.524,118.837 124.603,144.085 124.625 C 166.368 124.645,169.376 124.597,157.200 124.418 L 141.400 124.186 157.200 124.099 C 165.890 124.051,173.222 124.153,173.493 124.326 C 173.872 124.566,173.992 128.918,174.008 143.091 C 174.024 157.165,174.144 161.590,174.515 161.740 C 174.887 161.891,174.884 161.944,174.502 161.968 C 173.841 162.010,173.766 276.800,174.427 276.800 C 174.658 276.800,174.744 276.632,174.617 276.428 C 174.250 275.833,175.015 275.583,176.369 275.854 C 177.389 276.058,177.574 276.250,177.371 276.892 C 177.139 277.624,177.182 277.618,177.995 276.805 C 178.628 276.172,179.145 276.000,179.869 276.181 C 180.418 276.319,181.213 276.323,181.634 276.189 C 182.693 275.853,182.857 176.261,181.800 175.855 C 180.962 175.534,181.052 174.508,181.961 174.021 C 182.608 173.675,182.690 173.732,182.514 174.407 C 182.400 174.843,182.499 175.200,182.734 175.200 C 183.285 175.200,183.330 160.528,182.781 160.188 C 182.550 160.045,182.400 153.517,182.400 143.576 C 182.400 130.689,182.293 127.221,181.900 127.300 C 181.614 127.357,181.344 126.906,181.268 126.247 C 181.149 125.200,181.231 125.113,182.172 125.293 C 182.939 125.439,183.105 125.368,182.813 125.016 C 182.550 124.698,182.582 124.366,182.910 124.012 C 183.236 123.660,183.244 123.570,182.936 123.743 C 182.133 124.193,181.200 123.553,181.200 122.552 C 181.200 121.404,179.609 118.812,178.900 118.805 C 178.625 118.802,178.400 118.620,178.400 118.400 C 178.400 118.180,177.986 118.000,177.480 118.000 C 176.974 118.000,176.369 117.809,176.136 117.576 C 175.850 117.290,170.298 117.164,159.067 117.187 C 149.913 117.205,141.922 117.081,141.311 116.910 C 140.700 116.740,147.940 116.508,157.400 116.396 L 174.600 116.193 148.262 115.996 C 133.776 115.888,121.837 115.939,121.732 116.110 C 121.627 116.280,121.689 116.394,121.870 116.363 C 122.937 116.177,123.366 116.444,122.661 116.854 C 121.562 117.492,121.154 116.799,121.626 115.092 C 121.875 114.190,121.989 109.139,121.918 102.204 L 121.800 90.799 148.300 90.800 C 162.875 90.800,174.801 90.665,174.803 90.500 C 174.807 90.123,176.751 89.204,177.580 89.187 C 178.395 89.171,179.230 88.484,180.315 86.938 L 181.200 85.677 181.206 65.138 C 181.209 53.842,181.357 44.372,181.534 44.092 C 182.630 42.366,182.820 45.645,182.711 64.480 C 182.650 74.974,182.740 83.420,182.911 83.249 C 183.082 83.078,183.172 74.177,183.111 63.469 L 183.000 44.000 189.000 43.999 L 195.000 43.999 195.000 39.899 L 195.000 35.800 185.679 36.000 C 180.039 36.121,176.208 36.050,175.979 35.820 C 175.740 35.580,175.598 35.654,175.594 36.020 C 175.589 36.513,175.530 36.510,175.202 36.000 C 174.951 35.610,174.778 43.623,174.708 58.910 M200.598 36.349 C 200.482 36.651,200.392 92.551,200.397 160.571 C 200.402 228.590,200.290 285.088,200.149 286.121 C 199.853 288.282,199.628 288.367,197.836 287.000 C 197.114 286.450,196.316 286.000,196.062 286.000 C 195.808 286.000,195.600 285.864,195.600 285.698 C 195.600 285.531,195.015 285.160,194.300 284.871 C 193.585 284.583,192.687 284.179,192.305 283.974 C 191.923 283.768,191.248 283.600,190.805 283.600 C 190.362 283.600,190.000 283.438,190.000 283.240 C 190.000 282.869,189.111 282.714,183.059 282.030 C 181.111 281.810,179.274 281.427,178.976 281.180 C 178.677 280.932,178.203 280.874,177.918 281.051 C 177.633 281.227,175.510 281.400,173.200 281.436 C 168.083 281.515,163.249 281.998,162.963 282.459 C 162.848 282.647,162.144 282.800,161.400 282.800 C 160.656 282.800,159.936 282.980,159.800 283.200 C 159.664 283.420,159.059 283.600,158.456 283.600 C 157.853 283.600,157.189 283.743,156.980 283.918 C 156.771 284.093,155.880 284.478,155.000 284.772 C 147.232 287.372,134.888 294.783,129.350 300.173 C 128.883 300.628,127.353 302.093,125.950 303.428 C 123.279 305.972,121.672 307.742,120.000 309.985 C 119.450 310.723,118.775 311.555,118.500 311.835 C 118.225 312.114,118.000 312.427,118.000 312.531 C 118.000 312.634,117.319 313.862,116.487 315.259 C 115.656 316.657,114.555 318.790,114.042 320.000 C 113.529 321.210,112.975 322.471,112.812 322.802 C 111.068 326.344,110.133 336.972,111.300 340.000 C 111.428 340.330,111.813 341.476,112.157 342.546 C 113.453 346.576,120.123 355.600,121.806 355.600 C 121.926 355.600,123.297 356.321,124.853 357.203 C 128.804 359.442,135.554 361.600,138.606 361.600 C 139.607 361.600,140.000 361.777,140.000 362.229 C 140.000 362.797,140.059 362.798,140.622 362.235 C 141.115 361.742,142.161 361.620,145.633 361.647 C 152.654 361.704,162.920 359.340,170.114 356.010 C 171.553 355.345,173.015 354.800,173.365 354.800 C 173.714 354.800,174.000 354.648,174.000 354.463 C 174.000 354.277,174.855 353.692,175.900 353.163 C 176.945 352.633,177.860 352.065,177.933 351.900 C 178.007 351.735,178.397 351.600,178.800 351.600 C 179.203 351.600,179.593 351.453,179.667 351.272 C 179.740 351.092,180.970 350.161,182.400 349.202 C 183.830 348.244,185.090 347.356,185.200 347.228 C 185.310 347.100,186.030 346.523,186.800 345.946 C 187.570 345.369,188.783 344.335,189.496 343.648 C 190.209 342.962,191.043 342.400,191.348 342.400 C 191.653 342.400,192.117 341.883,192.379 341.252 C 192.640 340.620,193.292 339.904,193.827 339.660 C 194.362 339.417,194.800 339.061,194.800 338.870 C 194.800 338.679,195.178 338.090,195.640 337.561 C 196.101 337.033,197.046 335.904,197.740 335.053 C 198.433 334.202,199.180 333.297,199.400 333.041 C 200.351 331.935,203.452 326.217,204.302 324.000 C 205.432 321.056,206.753 316.535,206.932 315.000 C 207.247 312.290,208.047 309.200,208.433 309.200 C 209.048 309.200,208.915 125.308,208.300 125.085 C 207.732 124.878,208.451 123.349,209.063 123.463 C 209.248 123.498,209.940 123.614,210.600 123.720 C 215.733 124.548,218.916 125.316,221.200 126.278 C 221.530 126.417,221.890 126.555,222.000 126.585 C 223.960 127.116,225.288 127.634,227.538 128.743 C 228.494 129.214,229.529 129.600,229.838 129.600 C 230.147 129.600,230.401 129.735,230.403 129.900 C 230.407 130.259,232.344 131.200,233.080 131.200 C 233.366 131.200,233.600 131.336,233.600 131.502 C 233.600 131.669,234.185 132.064,234.900 132.380 C 235.615 132.697,236.523 133.256,236.918 133.624 C 237.312 133.992,238.437 134.705,239.418 135.209 C 240.398 135.713,241.200 136.277,241.200 136.463 C 241.200 136.648,241.383 136.800,241.606 136.800 C 242.007 136.800,246.604 140.309,249.900 143.131 C 250.835 143.932,251.600 144.815,251.600 145.094 C 251.600 145.372,251.782 145.600,252.005 145.600 C 253.476 145.600,266.400 161.717,266.400 163.551 C 266.400 163.761,266.537 163.993,266.705 164.067 C 266.873 164.140,267.933 166.090,269.061 168.400 C 272.953 176.370,273.670 178.326,275.734 186.600 C 278.253 196.703,278.915 209.370,277.448 219.400 C 277.319 220.280,277.111 221.810,276.985 222.800 C 276.859 223.790,276.472 225.950,276.126 227.600 C 275.780 229.250,275.354 231.320,275.179 232.200 C 274.888 233.663,274.448 235.279,272.616 241.600 C 272.266 242.810,271.804 244.113,271.589 244.495 C 271.375 244.877,271.200 245.552,271.200 245.995 C 271.200 246.438,271.020 246.800,270.800 246.800 C 270.580 246.800,270.400 247.162,270.400 247.605 C 270.400 248.048,270.241 248.723,270.047 249.105 C 269.571 250.040,268.982 251.507,268.400 253.200 C 268.136 253.970,267.757 255.005,267.560 255.500 C 267.362 255.995,267.046 256.805,266.857 257.300 C 266.668 257.795,266.128 258.982,265.657 259.938 C 265.186 260.894,264.800 261.929,264.800 262.238 C 264.800 262.547,264.620 262.800,264.400 262.800 C 264.180 262.800,264.000 263.124,264.000 263.520 C 264.000 263.916,263.849 264.411,263.664 264.620 C 263.479 264.829,263.091 265.630,262.802 266.400 C 262.116 268.224,260.950 270.815,258.441 276.095 C 257.319 278.458,256.400 280.627,256.400 280.915 C 256.400 281.204,256.216 281.624,255.991 281.849 C 255.713 282.127,256.415 282.267,258.193 282.289 C 259.628 282.306,260.920 282.130,261.063 281.898 C 261.226 281.634,261.129 281.597,260.803 281.798 C 260.253 282.138,260.568 280.032,261.132 279.604 C 261.280 279.492,261.671 278.860,262.000 278.200 C 262.329 277.540,262.689 276.910,262.799 276.800 C 262.910 276.690,263.405 275.835,263.900 274.900 C 264.395 273.965,265.205 272.435,265.700 271.500 C 266.195 270.565,266.735 269.740,266.900 269.667 C 267.065 269.593,267.200 269.188,267.200 268.767 C 267.200 268.345,267.380 268.000,267.600 268.000 C 267.820 268.000,268.000 267.757,268.000 267.461 C 268.000 267.164,269.145 264.599,270.544 261.761 C 271.943 258.922,273.334 255.880,273.636 255.000 C 273.937 254.120,274.502 252.810,274.892 252.088 C 275.281 251.366,275.600 250.457,275.600 250.068 C 275.600 249.679,275.752 249.189,275.938 248.980 C 276.123 248.771,276.678 247.520,277.170 246.200 C 277.661 244.880,278.230 243.487,278.432 243.105 C 278.634 242.723,278.800 242.136,278.800 241.800 C 278.800 241.464,278.980 240.832,279.200 240.395 C 279.420 239.958,279.780 239.242,280.000 238.805 C 280.220 238.368,280.400 237.558,280.400 237.005 C 280.400 236.452,280.580 236.000,280.800 236.000 C 281.020 236.000,281.200 235.471,281.200 234.824 C 281.200 234.177,281.380 233.536,281.600 233.400 C 281.820 233.264,282.000 232.634,282.000 232.000 C 282.000 231.366,282.160 230.748,282.356 230.627 C 282.551 230.506,282.808 229.821,282.927 229.104 C 283.045 228.387,283.344 226.990,283.591 226.000 C 283.838 225.010,284.210 223.390,284.418 222.400 C 284.625 221.410,284.981 219.790,285.208 218.800 C 286.112 214.859,287.112 207.584,287.435 202.600 C 287.684 198.763,287.936 197.836,288.415 199.000 C 288.703 199.702,288.747 199.665,288.772 198.700 C 288.790 197.976,288.595 197.600,288.200 197.600 C 287.747 197.600,287.600 197.111,287.600 195.600 C 287.600 194.089,287.747 193.600,288.200 193.600 C 288.589 193.600,288.798 193.214,288.794 192.500 C 288.789 191.665,288.698 191.542,288.415 191.989 C 287.909 192.789,287.717 192.166,287.432 188.800 C 287.311 187.370,287.024 185.030,286.794 183.600 C 286.565 182.170,286.273 180.324,286.146 179.497 C 286.019 178.671,285.755 177.895,285.558 177.774 C 285.361 177.652,285.200 176.944,285.200 176.200 C 285.200 175.456,285.020 174.736,284.800 174.600 C 284.580 174.464,284.400 173.859,284.400 173.256 C 284.400 172.653,284.251 171.989,284.070 171.780 C 283.888 171.571,283.507 170.590,283.224 169.600 C 282.941 168.610,282.549 167.395,282.354 166.900 C 281.556 164.872,281.088 163.763,280.753 163.105 C 280.559 162.723,280.400 162.138,280.400 161.805 C 280.400 161.472,280.220 161.200,280.000 161.200 C 279.780 161.200,279.600 160.955,279.600 160.655 C 279.600 160.134,278.033 156.964,275.224 151.800 C 273.876 149.323,268.104 140.355,267.629 140.000 C 267.482 139.890,266.929 139.170,266.400 138.400 C 265.871 137.630,265.149 136.730,264.797 136.400 C 264.444 136.070,263.876 135.391,263.534 134.891 C 263.192 134.392,262.302 133.310,261.556 132.488 C 260.810 131.666,259.033 129.645,257.606 127.997 C 256.180 126.348,254.650 124.612,254.206 124.138 C 253.763 123.663,253.184 123.033,252.919 122.738 C 252.655 122.442,252.205 121.968,251.919 121.684 C 251.634 121.401,250.902 120.591,250.292 119.884 C 249.683 119.178,247.927 117.280,246.390 115.666 C 244.852 114.053,243.688 112.581,243.803 112.395 C 243.918 112.209,243.677 111.951,243.268 111.822 C 242.859 111.692,241.619 110.554,240.513 109.293 C 239.406 108.032,237.578 106.033,236.451 104.852 C 235.323 103.670,234.400 102.610,234.400 102.497 C 234.400 102.384,233.995 101.897,233.500 101.415 C 232.213 100.160,227.116 94.244,225.906 92.600 C 225.745 92.380,225.203 91.660,224.703 91.000 C 223.128 88.922,221.326 86.253,220.486 84.755 C 220.040 83.960,219.433 82.880,219.138 82.355 C 218.842 81.830,218.501 81.310,218.379 81.200 C 218.097 80.945,216.522 77.473,215.113 74.000 C 214.889 73.450,214.548 72.687,214.353 72.305 C 214.159 71.923,214.000 71.259,214.000 70.829 C 214.000 70.399,213.841 69.949,213.648 69.830 C 213.454 69.710,213.197 69.204,213.076 68.706 C 212.955 68.208,212.679 67.170,212.462 66.400 C 211.337 62.391,210.852 60.342,210.428 57.800 C 210.171 56.260,209.790 54.232,209.580 53.294 C 209.371 52.356,209.200 50.975,209.200 50.225 C 209.200 49.475,209.027 47.992,208.817 46.931 C 208.606 45.869,208.222 42.930,207.963 40.400 L 207.493 35.800 204.151 35.800 C 201.687 35.800,200.753 35.944,200.598 36.349 M113.500 112.873 C 113.436 118.003,113.384 113.920,113.384 103.800 C 113.384 93.680,113.436 89.483,113.500 94.473 C 113.563 99.462,113.563 107.742,113.500 112.873 M182.329 160.533 C 182.406 160.928,182.202 161.200,181.829 161.200 C 181.458 161.200,181.200 160.858,181.200 160.367 C 181.200 159.392,182.135 159.530,182.329 160.533 M109.720 334.000 C 109.720 335.210,109.795 335.705,109.887 335.100 C 109.978 334.495,109.978 333.505,109.887 332.900 C 109.795 332.295,109.720 332.790,109.720 334.000 " stroke="none" fill="#049cfc" fill-rule="evenodd"></path><path id="path1" d="M195.505 35.893 C 195.198 36.519,195.691 44.000,196.039 44.000 C 196.518 44.000,196.507 36.113,196.028 35.817 C 195.823 35.691,195.588 35.725,195.505 35.893 M208.000 37.353 C 208.000 38.343,208.180 39.264,208.400 39.400 C 208.620 39.536,208.800 40.951,208.800 42.544 C 208.800 44.219,208.997 45.637,209.267 45.907 C 209.551 46.191,209.697 47.413,209.638 49.029 C 209.573 50.837,209.679 51.599,209.971 51.418 C 210.500 51.091,210.543 46.703,210.021 46.180 C 209.813 45.971,209.592 44.030,209.529 41.867 C 209.467 39.703,209.277 37.848,209.108 37.743 C 208.938 37.638,208.800 37.214,208.800 36.800 C 208.800 36.386,208.620 35.936,208.400 35.800 C 208.156 35.649,208.000 36.255,208.000 37.353 M210.400 54.376 C 210.400 55.683,210.580 56.864,210.800 57.000 C 211.020 57.136,211.200 57.957,211.200 58.824 C 211.200 59.691,211.375 60.400,211.588 60.400 C 211.801 60.400,211.953 61.014,211.924 61.764 C 211.896 62.514,212.061 63.639,212.290 64.264 C 212.520 64.889,212.939 66.210,213.223 67.200 C 213.507 68.190,213.888 69.171,214.070 69.380 C 214.251 69.589,214.400 70.062,214.400 70.431 C 214.400 70.800,214.704 71.799,215.076 72.651 C 215.447 73.503,215.773 74.290,215.800 74.400 C 215.827 74.510,216.153 75.297,216.524 76.149 C 216.896 77.001,217.200 77.853,217.200 78.043 C 217.200 78.233,217.740 79.266,218.400 80.338 C 219.060 81.411,219.600 82.494,219.600 82.744 C 219.600 82.995,219.759 83.200,219.953 83.200 C 220.148 83.200,220.407 83.515,220.529 83.900 C 220.817 84.809,222.012 86.753,222.900 87.758 C 223.285 88.194,223.600 88.707,223.600 88.897 C 223.600 89.088,224.139 89.819,224.798 90.522 C 225.457 91.225,225.997 91.935,225.998 92.099 C 225.999 92.264,226.647 93.074,227.439 93.899 C 228.230 94.725,229.146 95.798,229.475 96.284 C 229.803 96.771,230.415 97.278,230.836 97.411 C 231.256 97.545,231.602 97.957,231.604 98.327 C 231.606 98.697,232.731 100.208,234.104 101.683 C 238.156 106.040,241.757 109.978,242.400 110.757 C 243.080 111.581,244.294 112.107,244.534 111.683 C 244.623 111.527,244.268 110.989,243.747 110.486 C 243.226 109.983,242.800 109.692,242.800 109.840 C 242.800 109.987,242.395 109.593,241.900 108.963 C 241.405 108.333,240.190 107.019,239.200 106.042 C 238.210 105.065,237.670 104.400,238.000 104.563 C 238.330 104.726,238.240 104.563,237.800 104.201 C 237.360 103.840,237.049 103.363,237.110 103.142 C 237.170 102.921,237.035 102.855,236.810 102.994 C 236.584 103.133,236.400 103.060,236.400 102.832 C 236.400 102.604,235.545 101.547,234.500 100.484 C 231.939 97.879,231.215 96.924,231.533 96.570 C 231.680 96.406,231.575 96.401,231.300 96.559 C 231.025 96.718,230.800 96.671,230.800 96.455 C 230.800 96.240,230.125 95.364,229.300 94.509 C 227.162 92.293,226.000 90.853,226.000 90.417 C 226.000 90.209,225.685 89.856,225.300 89.632 C 224.915 89.408,224.763 89.219,224.961 89.212 C 225.160 89.205,224.923 88.854,224.435 88.430 C 223.947 88.007,223.531 87.512,223.510 87.330 C 223.401 86.366,223.066 85.600,222.753 85.600 C 222.559 85.600,222.400 85.330,222.400 85.000 C 222.400 84.670,222.220 84.400,222.000 84.400 C 221.780 84.400,221.600 84.130,221.600 83.800 C 221.600 83.470,221.409 83.200,221.176 83.200 C 220.943 83.200,220.855 83.035,220.980 82.832 C 221.105 82.630,220.936 82.193,220.604 81.861 C 220.272 81.529,220.000 80.974,220.000 80.629 C 220.000 80.283,219.820 80.000,219.600 80.000 C 219.380 80.000,219.200 79.640,219.200 79.200 C 219.200 78.760,219.054 78.400,218.875 78.400 C 218.696 78.400,218.302 77.770,218.000 77.000 C 217.698 76.230,217.304 75.600,217.125 75.600 C 216.946 75.600,216.800 75.060,216.800 74.400 C 216.800 73.740,216.620 73.200,216.400 73.200 C 216.180 73.200,216.000 72.771,216.000 72.246 C 216.000 71.721,215.739 70.789,215.420 70.174 C 215.102 69.560,214.950 68.882,215.082 68.667 C 215.216 68.450,215.118 68.404,214.862 68.562 C 214.545 68.757,214.400 68.392,214.400 67.400 C 214.400 66.537,214.239 66.053,214.000 66.200 C 213.665 66.407,213.372 64.642,213.553 63.500 C 213.579 63.335,213.420 63.200,213.200 63.200 C 212.980 63.200,212.800 62.581,212.800 61.824 C 212.800 61.067,212.620 60.336,212.400 60.200 C 212.180 60.064,212.000 59.258,212.000 58.410 C 212.000 57.561,211.830 56.807,211.622 56.733 C 211.415 56.660,211.204 55.565,211.154 54.300 C 211.034 51.263,210.400 51.327,210.400 54.376 M182.100 83.865 C 181.825 83.976,181.600 84.588,181.600 85.225 C 181.600 86.709,178.018 90.435,176.878 90.136 C 176.475 90.031,175.922 90.212,175.650 90.539 C 175.032 91.284,176.836 91.200,177.750 90.442 C 178.061 90.183,178.470 90.016,178.658 90.071 C 179.302 90.257,180.800 89.172,180.800 88.519 C 180.800 88.160,180.911 87.978,181.048 88.114 C 181.476 88.543,182.400 87.300,182.400 86.295 C 182.400 85.766,182.525 85.208,182.678 85.055 C 183.053 84.680,183.196 83.592,182.865 83.632 C 182.719 83.649,182.375 83.754,182.100 83.865 M122.191 103.700 L 122.200 115.800 148.500 115.903 C 166.682 115.974,174.800 116.137,174.800 116.429 C 174.800 116.662,175.291 116.796,175.892 116.727 C 176.608 116.644,177.325 116.918,177.977 117.524 C 178.536 118.046,179.282 118.367,179.685 118.262 C 180.079 118.159,180.309 118.224,180.195 118.407 C 179.935 118.829,180.815 120.800,181.264 120.800 C 181.449 120.800,181.600 121.340,181.600 122.000 C 181.600 122.660,181.780 123.200,182.000 123.200 C 182.220 123.200,182.400 122.480,182.400 121.600 C 182.400 120.720,182.263 120.000,182.095 120.000 C 181.927 120.000,181.612 119.610,181.395 119.133 C 181.178 118.656,180.648 118.071,180.217 117.833 C 179.786 117.595,179.187 117.173,178.885 116.896 C 178.583 116.619,178.170 116.495,177.968 116.620 C 177.765 116.745,177.600 116.668,177.600 116.448 C 177.600 115.884,178.825 115.915,149.306 115.739 L 122.412 115.578 122.297 103.589 L 122.182 91.600 122.191 103.700 M244.622 112.364 C 244.176 113.086,244.869 113.900,245.924 113.892 C 246.516 113.888,246.774 113.805,246.498 113.708 C 246.221 113.611,246.114 113.339,246.259 113.104 C 246.416 112.851,246.335 112.793,246.062 112.962 C 245.788 113.131,245.600 112.993,245.600 112.624 C 245.600 111.944,244.983 111.780,244.622 112.364 M246.400 114.738 C 246.400 114.925,247.543 116.254,248.940 117.693 C 250.336 119.131,251.591 120.599,251.727 120.954 C 251.863 121.309,252.341 121.600,252.787 121.600 C 253.234 121.600,253.564 121.735,253.521 121.900 C 253.342 122.575,254.093 124.000,254.627 124.000 C 254.942 124.000,255.200 124.170,255.200 124.379 C 255.200 124.587,256.268 125.892,257.574 127.279 C 260.212 130.081,263.215 133.674,266.202 137.600 C 267.290 139.030,268.499 140.549,268.890 140.975 C 269.280 141.402,269.600 141.987,269.600 142.275 C 269.600 142.564,269.780 142.800,270.000 142.800 C 270.220 142.800,270.400 143.070,270.400 143.400 C 270.400 143.730,270.580 144.000,270.800 144.000 C 271.020 144.000,271.200 144.188,271.200 144.417 C 271.200 144.646,271.560 145.220,272.000 145.692 C 272.440 146.164,272.800 146.787,272.800 147.075 C 272.800 147.364,272.980 147.600,273.200 147.600 C 273.420 147.600,273.600 147.870,273.600 148.200 C 273.600 148.530,273.735 148.801,273.900 148.803 C 274.065 148.805,274.398 149.210,274.640 149.703 C 275.821 152.108,276.981 154.000,277.274 154.000 C 277.453 154.000,277.600 154.313,277.600 154.696 C 277.600 155.580,281.689 163.970,282.129 163.987 C 282.468 164.000,282.359 161.955,282.001 161.600 C 281.524 161.126,280.800 159.562,280.800 159.005 C 280.800 158.672,280.620 158.400,280.400 158.400 C 280.180 158.400,280.000 158.055,280.000 157.633 C 280.000 157.212,279.865 156.807,279.700 156.733 C 279.535 156.660,278.967 155.745,278.437 154.700 C 277.908 153.655,277.323 152.800,277.137 152.800 C 276.952 152.800,276.800 152.440,276.800 152.000 C 276.800 151.560,276.620 151.200,276.400 151.200 C 276.180 151.200,276.000 150.840,276.000 150.400 C 276.000 149.960,275.820 149.600,275.600 149.600 C 275.380 149.600,275.200 149.240,275.200 148.800 C 275.200 148.360,275.020 148.000,274.800 148.000 C 274.580 148.000,274.400 147.758,274.400 147.462 C 274.400 147.166,274.044 146.602,273.609 146.209 C 273.175 145.815,272.916 145.336,273.035 145.144 C 273.154 144.952,272.970 144.687,272.628 144.555 C 272.285 144.424,272.089 144.179,272.193 144.012 C 272.296 143.844,272.025 143.385,271.591 142.991 C 271.156 142.598,270.800 142.106,270.800 141.898 C 270.800 141.691,270.260 141.017,269.600 140.400 C 268.940 139.783,268.400 139.126,268.400 138.940 C 268.399 138.753,267.949 138.077,267.400 137.438 C 266.850 136.799,266.400 136.127,266.400 135.946 C 266.400 135.765,265.410 134.627,264.200 133.417 C 262.990 132.207,262.000 130.933,262.000 130.585 C 262.000 130.237,261.820 130.064,261.600 130.200 C 261.380 130.336,261.200 130.156,261.200 129.800 C 261.200 129.444,261.020 129.264,260.800 129.400 C 260.580 129.536,260.400 129.483,260.400 129.282 C 260.400 129.081,259.635 128.113,258.700 127.131 C 256.275 124.584,255.200 123.253,255.200 122.797 C 255.200 122.579,254.900 122.400,254.533 122.400 C 254.167 122.400,253.968 122.299,254.091 122.175 C 254.361 121.905,250.161 117.600,249.627 117.600 C 249.422 117.600,249.140 117.240,249.000 116.800 C 248.860 116.360,248.599 116.000,248.420 116.000 C 248.240 116.000,247.999 115.640,247.884 115.200 C 247.684 114.435,246.400 114.036,246.400 114.738 M209.200 124.800 C 209.200 125.020,209.830 125.200,210.600 125.200 C 211.370 125.200,212.000 125.020,212.000 124.800 C 212.000 124.580,211.370 124.400,210.600 124.400 C 209.830 124.400,209.200 124.580,209.200 124.800 M213.600 125.560 C 213.600 125.758,214.152 125.882,214.826 125.835 C 215.501 125.789,216.356 125.981,216.726 126.263 C 217.726 127.023,218.073 126.906,217.507 126.000 C 216.989 125.170,213.600 124.788,213.600 125.560 M181.867 125.867 C 181.359 126.374,181.603 126.750,182.400 126.690 C 182.840 126.657,183.200 126.398,183.200 126.115 C 183.200 125.574,182.323 125.411,181.867 125.867 M219.473 126.553 C 219.081 127.575,219.082 127.576,220.399 127.484 C 221.705 127.393,222.081 126.800,220.833 126.800 C 220.412 126.800,219.995 126.584,219.907 126.320 C 219.809 126.028,219.640 126.119,219.473 126.553 M221.803 127.995 C 221.664 128.219,221.819 128.291,222.160 128.160 C 222.491 128.033,223.715 128.415,224.881 129.009 C 226.046 129.603,227.313 130.249,227.695 130.445 C 228.609 130.913,229.200 130.895,229.200 130.400 C 229.200 130.180,228.930 130.000,228.600 130.000 C 228.270 130.000,228.000 129.799,228.000 129.553 C 228.000 129.297,227.589 129.185,227.037 129.291 C 226.346 129.423,226.132 129.323,226.279 128.938 C 226.411 128.595,226.188 128.400,225.666 128.400 C 225.216 128.400,224.736 128.220,224.600 128.000 C 224.281 127.483,222.122 127.480,221.803 127.995 M229.600 131.224 C 229.600 131.457,229.760 131.549,229.955 131.428 C 230.150 131.307,230.539 131.485,230.819 131.823 C 231.099 132.160,231.569 132.344,231.864 132.231 C 232.162 132.116,232.400 132.286,232.400 132.613 C 232.400 132.936,232.758 133.200,233.195 133.200 C 233.901 133.200,234.450 133.534,236.154 135.000 C 236.410 135.220,236.859 135.451,237.152 135.514 C 237.446 135.577,237.937 135.880,238.245 136.188 C 238.553 136.496,239.164 136.862,239.602 137.001 C 240.041 137.140,240.400 137.432,240.400 137.651 C 240.400 137.869,240.580 137.936,240.800 137.800 C 241.020 137.664,241.200 137.754,241.200 138.000 C 241.200 138.246,241.351 138.354,241.536 138.239 C 241.721 138.125,242.267 138.564,242.748 139.216 C 243.230 139.867,243.856 140.400,244.140 140.400 C 244.424 140.400,245.502 141.210,246.535 142.200 C 248.648 144.225,248.800 144.296,248.800 143.268 C 248.800 142.865,248.350 142.294,247.800 142.000 C 247.250 141.706,246.800 141.315,246.800 141.132 C 246.800 140.950,246.530 140.800,246.200 140.800 C 245.870 140.800,245.600 140.620,245.600 140.400 C 245.600 140.180,245.330 140.000,245.000 140.000 C 244.670 140.000,244.400 139.801,244.400 139.557 C 244.400 139.314,244.139 139.214,243.820 139.337 C 243.433 139.485,243.315 139.367,243.463 138.980 C 243.586 138.661,243.488 138.400,243.247 138.400 C 242.839 138.400,241.821 137.674,240.585 136.502 C 240.297 136.227,239.642 135.815,239.130 135.584 C 238.010 135.080,236.982 134.474,235.392 133.380 C 233.755 132.255,232.015 131.544,231.570 131.819 C 231.367 131.944,231.200 131.767,231.200 131.424 C 231.200 131.067,230.858 130.800,230.400 130.800 C 229.960 130.800,229.600 130.991,229.600 131.224 M249.400 144.400 C 249.264 144.620,249.418 144.800,249.743 144.800 C 250.068 144.800,250.414 145.025,250.512 145.300 C 250.610 145.575,250.827 145.674,250.993 145.519 C 251.159 145.365,251.017 144.960,250.676 144.619 C 249.951 143.894,249.735 143.857,249.400 144.400 M252.000 146.800 C 252.000 147.020,252.180 147.200,252.400 147.200 C 252.620 147.200,252.800 147.439,252.800 147.730 C 252.800 148.453,254.585 150.082,254.963 149.704 C 255.130 149.537,255.230 149.580,255.186 149.800 C 255.015 150.649,255.217 151.236,255.600 151.000 C 255.820 150.864,256.000 150.942,256.000 151.173 C 256.000 151.404,256.540 152.109,257.200 152.740 C 257.860 153.371,258.400 154.082,258.400 154.321 C 258.400 154.559,258.736 154.990,259.146 155.277 C 259.557 155.565,259.952 155.980,260.024 156.200 C 260.096 156.420,260.304 156.780,260.486 157.000 C 260.667 157.220,261.262 157.940,261.807 158.600 C 262.353 159.260,262.799 160.115,262.800 160.500 C 262.800 160.885,262.968 161.200,263.173 161.200 C 263.378 161.200,263.660 161.559,263.799 161.998 C 263.938 162.436,264.304 163.047,264.612 163.355 C 264.920 163.663,265.223 164.154,265.286 164.448 C 265.458 165.253,266.346 166.081,266.762 165.824 C 267.170 165.571,266.004 163.132,264.188 160.440 C 263.534 159.472,262.820 158.406,262.600 158.072 C 261.860 156.946,261.006 155.866,260.100 154.912 C 259.605 154.390,259.200 153.884,259.200 153.786 C 259.200 153.574,258.316 152.498,256.345 150.312 C 255.388 149.251,254.713 148.806,254.377 149.014 C 254.005 149.244,253.939 149.136,254.137 148.621 C 254.342 148.086,254.255 147.970,253.784 148.151 C 253.410 148.294,253.261 148.225,253.414 147.978 C 253.689 147.532,252.926 146.400,252.351 146.400 C 252.158 146.400,252.000 146.580,252.000 146.800 M282.400 165.164 C 282.400 165.584,282.961 167.609,283.647 169.664 C 284.333 171.719,285.063 174.120,285.269 175.000 C 285.942 177.873,286.431 180.167,286.761 182.000 C 286.940 182.990,287.200 184.070,287.339 184.400 C 287.478 184.730,287.644 186.350,287.707 188.000 C 287.776 189.777,287.981 190.918,288.211 190.800 C 288.667 190.565,288.821 183.894,288.377 183.600 C 288.211 183.489,288.007 182.499,287.924 181.400 C 287.841 180.300,287.639 179.184,287.475 178.920 C 287.311 178.656,287.153 177.808,287.124 177.036 C 287.095 176.264,286.920 175.726,286.736 175.840 C 286.551 175.954,286.400 175.533,286.400 174.904 C 286.400 174.275,286.249 173.589,286.064 173.380 C 285.880 173.171,285.491 171.965,285.201 170.700 C 284.910 169.435,284.521 168.400,284.336 168.400 C 284.151 168.400,284.000 167.860,284.000 167.200 C 284.000 166.540,283.820 166.000,283.600 166.000 C 283.380 166.000,283.200 165.640,283.200 165.200 C 283.200 164.760,283.020 164.400,282.800 164.400 C 282.580 164.400,282.400 164.744,282.400 165.164 M266.800 166.800 C 266.800 167.240,266.980 167.600,267.200 167.600 C 267.420 167.600,267.600 168.050,267.600 168.600 C 267.600 169.150,267.780 169.600,268.000 169.600 C 268.220 169.600,268.400 169.825,268.399 170.100 C 268.398 170.533,268.798 171.462,270.463 174.895 C 270.648 175.277,270.800 175.862,270.800 176.195 C 270.800 176.528,270.980 176.800,271.200 176.800 C 271.420 176.800,271.600 177.160,271.600 177.600 C 271.600 178.040,271.780 178.400,272.000 178.400 C 272.220 178.400,272.400 178.940,272.400 179.600 C 272.400 180.260,272.580 180.800,272.800 180.800 C 273.020 180.800,273.200 181.340,273.200 182.000 C 273.200 182.660,273.380 183.200,273.600 183.200 C 273.820 183.200,274.000 182.671,274.000 182.024 C 274.000 181.377,273.820 180.736,273.600 180.600 C 273.380 180.464,273.200 179.913,273.200 179.376 C 273.200 178.839,273.020 178.400,272.800 178.400 C 272.580 178.400,272.400 177.948,272.400 177.395 C 272.400 176.842,272.239 176.077,272.042 175.695 C 271.845 175.313,271.103 173.740,270.392 172.200 C 267.380 165.671,266.800 164.799,266.800 166.800 M274.000 184.967 C 274.000 185.718,274.165 186.393,274.367 186.467 C 274.569 186.540,274.780 187.500,274.835 188.600 C 274.891 189.700,275.080 191.001,275.255 191.492 C 275.431 191.982,275.617 193.030,275.671 193.820 C 275.724 194.610,275.896 195.335,276.052 195.432 C 276.209 195.529,276.253 196.597,276.149 197.804 C 275.995 199.601,276.074 200.000,276.581 200.000 C 277.085 200.000,277.200 199.442,277.200 197.000 C 277.200 195.267,277.031 194.000,276.800 194.000 C 276.580 194.000,276.400 193.021,276.400 191.824 C 276.400 190.627,276.220 189.536,276.000 189.400 C 275.780 189.264,275.600 188.533,275.600 187.776 C 275.600 187.019,275.420 186.400,275.200 186.400 C 274.980 186.400,274.800 185.770,274.800 185.000 C 274.800 184.230,274.620 183.600,274.400 183.600 C 274.180 183.600,274.000 184.215,274.000 184.967 M288.154 194.577 C 288.032 194.894,288.003 195.479,288.089 195.877 C 288.187 196.328,288.324 196.112,288.454 195.300 C 288.671 193.938,288.530 193.596,288.154 194.577 M287.856 200.278 C 287.381 200.752,287.595 201.913,288.200 202.145 C 288.631 202.310,288.800 202.103,288.800 201.411 C 288.800 200.418,288.307 199.826,287.856 200.278 M276.542 201.300 C 276.717 202.449,278.000 202.777,278.000 201.672 C 278.000 201.240,277.715 200.776,277.367 200.643 C 276.434 200.285,276.393 200.318,276.542 201.300 M287.843 203.130 C 287.731 203.311,287.661 204.346,287.688 205.430 C 287.715 206.513,287.612 207.779,287.460 208.242 C 287.308 208.705,287.000 210.325,286.776 211.842 C 286.113 216.341,285.586 219.054,284.419 224.000 C 283.480 227.975,283.454 228.400,284.148 228.400 C 284.629 228.400,284.800 228.026,284.800 226.976 C 284.800 226.193,284.935 225.636,285.100 225.738 C 285.265 225.840,285.436 225.282,285.480 224.498 C 285.525 223.713,285.708 222.965,285.889 222.836 C 286.070 222.706,286.276 221.970,286.347 221.200 C 286.418 220.430,286.661 219.575,286.887 219.300 C 287.174 218.951,287.158 218.800,286.835 218.800 C 286.497 218.800,286.487 218.586,286.798 218.004 C 287.032 217.566,287.248 216.583,287.276 215.820 C 287.305 215.057,287.441 214.502,287.579 214.587 C 287.716 214.672,287.855 214.080,287.886 213.271 C 287.976 210.920,288.123 209.828,288.406 209.400 C 288.813 208.784,288.814 202.800,288.407 202.800 C 288.209 202.800,287.955 202.948,287.843 203.130 M276.813 207.149 C 276.802 210.792,276.873 211.237,277.400 210.800 C 278.226 210.114,278.236 204.864,277.413 203.776 C 276.884 203.077,276.824 203.414,276.813 207.149 M276.598 212.404 C 276.461 212.626,276.457 213.150,276.590 213.570 C 276.724 213.989,276.639 214.453,276.401 214.599 C 276.139 214.761,276.047 215.678,276.167 216.939 C 276.275 218.079,276.202 219.273,276.005 219.592 C 275.784 219.950,275.809 220.370,276.072 220.687 C 276.339 221.008,276.349 221.200,276.100 221.200 C 275.684 221.200,275.251 223.206,274.933 226.600 C 274.831 227.700,274.578 228.771,274.373 228.980 C 274.168 229.189,274.000 230.224,274.000 231.280 C 274.000 232.336,273.820 233.200,273.600 233.200 C 273.380 233.200,273.200 233.729,273.200 234.376 C 273.200 235.023,273.020 235.664,272.800 235.800 C 272.580 235.936,272.400 236.667,272.400 237.424 C 272.400 238.181,272.220 238.800,272.000 238.800 C 271.780 238.800,271.600 239.329,271.600 239.976 C 271.600 240.623,271.420 241.264,271.200 241.400 C 270.980 241.536,270.800 241.997,270.800 242.424 C 270.800 242.851,270.620 243.200,270.400 243.200 C 270.180 243.200,270.000 243.830,270.000 244.600 C 270.000 245.370,269.841 246.000,269.647 246.000 C 269.263 246.000,268.815 247.166,268.534 248.896 C 268.436 249.499,268.105 250.476,267.799 251.068 C 267.492 251.659,267.332 252.291,267.444 252.471 C 267.556 252.652,267.457 252.800,267.224 252.800 C 266.991 252.800,266.800 253.149,266.800 253.576 C 266.800 254.003,266.620 254.464,266.400 254.600 C 266.180 254.736,266.000 255.197,266.000 255.624 C 266.000 256.051,265.820 256.400,265.600 256.400 C 265.380 256.400,265.200 256.652,265.200 256.959 C 265.200 257.267,264.705 258.482,264.100 259.659 C 263.495 260.837,262.939 262.160,262.863 262.600 C 262.788 263.040,262.563 263.460,262.363 263.533 C 262.164 263.607,262.000 263.888,262.000 264.158 C 262.000 264.429,261.640 265.395,261.200 266.306 C 260.760 267.216,260.400 268.240,260.400 268.581 C 260.400 268.921,260.190 269.200,259.933 269.200 C 259.677 269.200,259.580 269.314,259.719 269.453 C 259.858 269.591,259.722 270.062,259.416 270.498 C 259.110 270.935,258.956 271.541,259.073 271.846 C 259.190 272.151,259.086 272.400,258.843 272.400 C 258.599 272.400,258.400 272.760,258.400 273.200 C 258.400 273.640,258.220 274.000,258.000 274.000 C 257.780 274.000,257.600 274.360,257.600 274.800 C 257.600 275.240,257.465 275.601,257.300 275.603 C 256.889 275.607,256.000 277.591,256.000 278.503 C 256.000 278.912,255.820 279.136,255.600 279.000 C 255.380 278.864,255.187 279.078,255.170 279.476 C 255.154 279.874,255.063 280.620,254.968 281.134 C 254.852 281.760,254.961 282.013,255.297 281.901 C 255.574 281.809,255.855 281.389,255.923 280.967 C 256.034 280.271,257.224 277.583,259.246 273.462 C 259.661 272.616,260.000 271.671,260.000 271.362 C 260.000 271.053,260.180 270.800,260.400 270.800 C 260.620 270.800,260.800 270.451,260.800 270.024 C 260.800 269.597,260.980 269.136,261.200 269.000 C 261.420 268.864,261.600 268.403,261.600 267.976 C 261.600 267.549,261.780 267.200,262.000 267.200 C 262.220 267.200,262.400 266.840,262.400 266.400 C 262.400 265.960,262.580 265.600,262.800 265.600 C 263.020 265.600,263.200 265.347,263.200 265.038 C 263.200 264.729,263.586 263.694,264.057 262.738 C 264.528 261.782,265.050 260.640,265.217 260.200 C 265.384 259.760,265.876 258.590,266.310 257.600 C 266.745 256.610,267.236 255.176,267.401 254.413 C 267.566 253.650,267.844 252.750,268.018 252.413 C 269.027 250.459,270.000 247.901,270.000 247.204 C 270.000 246.762,270.136 246.400,270.303 246.400 C 270.669 246.400,271.600 243.533,271.600 242.406 C 271.600 241.963,271.780 241.600,272.000 241.600 C 272.220 241.600,272.400 241.071,272.400 240.424 C 272.400 239.777,272.580 239.136,272.800 239.000 C 273.020 238.864,273.200 238.043,273.200 237.176 C 273.200 236.309,273.380 235.600,273.600 235.600 C 273.820 235.600,274.000 235.060,274.000 234.400 C 274.000 233.740,274.198 233.200,274.440 233.200 C 274.717 233.200,274.827 232.530,274.737 231.400 C 274.638 230.145,274.747 229.600,275.097 229.600 C 275.423 229.600,275.600 228.995,275.600 227.880 C 275.600 226.934,275.763 225.989,275.963 225.780 C 276.331 225.395,276.695 222.954,277.033 218.600 C 277.302 215.140,277.425 214.284,277.767 213.519 C 278.265 212.404,277.216 211.403,276.598 212.404 M283.145 229.500 C 283.115 229.885,283.092 230.515,283.093 230.900 C 283.095 231.285,282.939 231.600,282.748 231.600 C 282.557 231.600,282.400 232.140,282.400 232.800 C 282.400 233.460,282.220 234.000,282.000 234.000 C 281.780 234.000,281.600 234.439,281.600 234.976 C 281.600 235.513,281.420 236.064,281.200 236.200 C 280.980 236.336,280.800 236.853,280.800 237.348 C 280.800 237.844,280.440 238.995,280.000 239.906 C 279.560 240.816,279.200 241.930,279.200 242.381 C 279.200 242.831,279.020 243.200,278.800 243.200 C 278.580 243.200,278.400 243.740,278.400 244.400 C 278.400 245.060,278.220 245.600,278.000 245.600 C 277.780 245.600,277.600 246.050,277.600 246.600 C 277.600 247.150,277.420 247.600,277.200 247.600 C 276.980 247.600,276.800 247.949,276.800 248.376 C 276.800 248.803,276.620 249.264,276.400 249.400 C 276.180 249.536,276.000 250.087,276.000 250.624 C 276.000 251.161,275.820 251.600,275.600 251.600 C 275.380 251.600,275.200 252.050,275.200 252.600 C 275.200 253.150,275.020 253.600,274.800 253.600 C 274.580 253.600,274.400 253.949,274.400 254.376 C 274.400 254.803,274.220 255.264,274.000 255.400 C 273.780 255.536,273.600 255.997,273.600 256.424 C 273.600 256.851,273.420 257.200,273.200 257.200 C 272.980 257.200,272.800 257.560,272.800 258.000 C 272.800 258.440,272.620 258.800,272.400 258.800 C 272.180 258.800,272.000 259.160,272.000 259.600 C 272.000 260.040,271.807 260.400,271.572 260.400 C 271.337 260.400,271.202 260.801,271.272 261.290 C 271.346 261.802,271.018 262.592,270.500 263.149 C 270.005 263.681,269.600 264.451,269.600 264.858 C 269.600 265.266,269.420 265.600,269.200 265.600 C 268.980 265.600,268.800 265.945,268.800 266.367 C 268.800 266.788,268.665 267.193,268.500 267.267 C 268.335 267.340,267.570 268.659,266.800 270.198 C 266.030 271.737,264.815 274.049,264.100 275.336 C 263.385 276.624,262.800 277.960,262.800 278.305 C 262.800 278.651,262.683 278.816,262.539 278.673 C 262.240 278.373,261.200 280.216,261.200 281.046 C 261.200 281.351,261.380 281.600,261.600 281.600 C 261.820 281.600,262.000 281.240,262.000 280.800 C 262.000 280.360,262.152 280.000,262.337 280.000 C 262.523 280.000,263.107 279.145,263.637 278.100 C 264.166 277.055,264.914 275.851,265.299 275.425 C 265.685 274.998,266.000 274.413,266.000 274.125 C 266.000 273.836,266.135 273.599,266.300 273.597 C 266.651 273.593,267.600 271.663,267.600 270.954 C 267.600 270.686,267.737 270.407,267.904 270.333 C 268.071 270.260,268.989 268.580,269.944 266.600 C 270.899 264.620,272.305 261.785,273.068 260.300 C 273.832 258.815,274.333 257.600,274.182 257.600 C 274.031 257.600,274.199 257.156,274.554 256.614 C 274.909 256.072,275.200 255.262,275.200 254.814 C 275.200 254.366,275.380 254.000,275.600 254.000 C 275.820 254.000,276.000 253.550,276.000 253.000 C 276.000 252.450,276.180 252.000,276.400 252.000 C 276.620 252.000,276.800 251.460,276.800 250.800 C 276.800 250.140,276.980 249.600,277.200 249.600 C 277.420 249.600,277.600 249.240,277.600 248.800 C 277.600 248.360,277.780 248.000,278.000 248.000 C 278.220 248.000,278.400 247.640,278.400 247.200 C 278.400 246.760,278.580 246.400,278.800 246.400 C 279.020 246.400,279.200 245.860,279.200 245.200 C 279.200 244.540,279.380 244.000,279.600 244.000 C 279.820 244.000,280.000 243.651,280.000 243.224 C 280.000 242.797,280.180 242.336,280.400 242.200 C 280.620 242.064,280.800 241.413,280.800 240.753 C 280.800 240.093,280.942 239.640,281.115 239.748 C 281.288 239.855,281.469 239.470,281.517 238.894 C 281.565 238.317,281.738 237.745,281.902 237.622 C 282.066 237.500,282.261 236.680,282.335 235.800 C 282.409 234.920,282.634 234.029,282.835 233.820 C 283.036 233.611,283.200 233.037,283.200 232.544 C 283.200 232.051,283.359 231.549,283.554 231.429 C 284.171 231.047,284.322 228.800,283.731 228.800 C 283.439 228.800,283.175 229.115,283.145 229.500 M180.200 276.721 C 177.609 276.936,177.548 277.600,180.120 277.600 C 181.374 277.600,182.400 277.431,182.400 277.224 C 182.400 276.670,181.979 276.573,180.200 276.721 M175.600 277.165 C 175.600 277.571,176.623 277.511,177.055 277.078 C 177.208 276.925,176.943 276.800,176.467 276.800 C 175.990 276.800,175.600 276.964,175.600 277.165 M166.170 280.449 C 165.953 280.800,166.387 280.870,169.400 280.969 C 171.188 281.028,172.000 280.857,172.000 280.422 C 172.000 280.003,166.430 280.028,166.170 280.449 M174.326 280.486 C 174.862 281.023,177.306 281.019,177.496 280.481 C 177.632 280.095,177.214 279.993,175.860 280.081 C 174.860 280.147,174.169 280.329,174.326 280.486 M178.783 280.543 C 179.333 281.093,181.944 281.122,182.152 280.580 C 182.265 280.287,181.647 280.136,180.357 280.141 C 179.071 280.147,178.526 280.286,178.783 280.543 M162.583 281.227 C 162.457 281.432,162.993 281.600,163.776 281.600 C 164.559 281.600,165.200 281.447,165.200 281.261 C 165.200 280.795,162.869 280.764,162.583 281.227 M184.400 281.282 C 184.400 281.457,185.030 281.600,185.800 281.600 C 186.570 281.600,187.200 281.414,187.200 281.187 C 187.200 280.961,186.570 280.817,185.800 280.869 C 185.030 280.921,184.400 281.107,184.400 281.282 M159.063 282.100 C 159.340 282.550,161.600 282.461,161.600 282.000 C 161.600 281.780,160.988 281.645,160.239 281.700 C 159.490 281.755,158.961 281.935,159.063 282.100 M188.400 282.000 C 188.400 282.220,188.940 282.400,189.600 282.400 C 190.260 282.400,190.800 282.580,190.800 282.800 C 190.800 283.020,191.340 283.200,192.000 283.200 C 192.660 283.200,193.200 283.380,193.200 283.600 C 193.200 283.820,193.571 284.000,194.024 284.000 C 194.505 284.000,194.738 283.823,194.584 283.573 C 194.439 283.339,194.221 283.246,194.099 283.367 C 193.978 283.488,193.681 283.343,193.440 283.045 C 192.710 282.144,188.400 281.250,188.400 282.000 M156.326 282.834 C 155.962 283.037,155.200 283.242,154.632 283.289 C 154.065 283.336,153.600 283.590,153.600 283.854 C 153.600 284.118,153.465 284.409,153.300 284.501 C 153.135 284.593,153.270 284.583,153.600 284.478 C 153.930 284.373,154.693 284.202,155.296 284.099 C 155.899 283.995,156.293 283.751,156.172 283.555 C 156.052 283.360,156.503 283.200,157.176 283.200 C 157.849 283.200,158.400 283.058,158.400 282.885 C 158.400 282.432,157.101 282.400,156.326 282.834 M195.107 284.065 C 194.962 284.442,195.322 284.833,196.143 285.192 C 196.834 285.495,197.635 286.070,197.923 286.471 C 198.405 287.143,199.600 287.500,199.600 286.971 C 199.600 286.569,198.473 285.600,198.005 285.600 C 197.756 285.600,197.641 285.457,197.749 285.283 C 197.856 285.109,197.579 284.939,197.132 284.905 C 196.686 284.871,196.097 284.539,195.824 284.166 C 195.411 283.601,195.292 283.584,195.107 284.065 M147.200 286.800 C 147.200 287.020,147.470 287.200,147.800 287.200 C 148.130 287.200,148.400 287.020,148.400 286.800 C 148.400 286.580,148.130 286.400,147.800 286.400 C 147.470 286.400,147.200 286.580,147.200 286.800 M145.776 287.387 C 145.019 287.960,145.023 287.975,145.900 287.987 C 146.439 287.995,146.800 287.759,146.800 287.400 C 146.800 286.659,146.741 286.658,145.776 287.387 M142.400 289.267 C 142.400 289.450,142.130 289.600,141.800 289.600 C 141.470 289.600,141.200 289.780,141.200 290.000 C 141.200 290.220,140.859 290.400,140.443 290.400 C 140.026 290.400,139.581 290.673,139.453 291.006 C 139.230 291.588,137.322 292.599,136.700 292.465 C 136.535 292.429,136.400 292.670,136.400 293.000 C 136.400 293.541,135.925 293.778,135.100 293.647 C 134.935 293.621,134.800 293.791,134.800 294.024 C 134.800 294.257,134.665 294.375,134.500 294.287 C 134.070 294.057,132.814 295.475,133.133 295.830 C 133.280 295.994,133.085 296.014,132.700 295.876 C 132.315 295.738,132.000 295.799,132.000 296.013 C 132.000 296.226,131.828 296.400,131.618 296.400 C 131.137 296.400,129.200 298.315,129.200 298.791 C 129.200 298.986,128.845 299.259,128.412 299.396 C 127.631 299.644,123.200 303.738,123.200 304.211 C 123.200 304.711,122.085 305.553,121.783 305.281 C 121.612 305.126,121.596 305.216,121.747 305.480 C 121.911 305.765,121.126 306.856,119.811 308.171 C 118.595 309.388,117.600 310.567,117.600 310.791 C 117.600 311.016,117.420 311.200,117.200 311.200 C 116.980 311.200,116.800 311.558,116.800 311.997 C 116.800 312.435,116.440 313.018,116.000 313.293 C 115.560 313.568,115.200 314.109,115.200 314.496 C 115.200 314.883,115.041 315.200,114.847 315.200 C 114.415 315.200,112.261 319.515,112.184 320.537 C 112.153 320.942,111.964 321.392,111.764 321.537 C 111.391 321.807,111.110 322.614,111.082 323.500 C 111.074 323.775,110.897 324.000,110.691 324.000 C 110.484 324.000,110.410 324.248,110.526 324.551 C 110.642 324.854,110.550 325.290,110.320 325.520 C 109.686 326.154,109.560 332.000,110.180 332.000 C 110.509 332.000,110.702 331.227,110.752 329.707 C 110.793 328.446,111.000 327.240,111.213 327.027 C 111.426 326.814,111.600 326.224,111.600 325.715 C 111.600 325.206,111.759 324.477,111.953 324.095 C 112.148 323.713,112.508 322.905,112.753 322.300 C 113.372 320.776,113.843 319.620,114.464 318.100 C 114.756 317.385,115.131 316.800,115.298 316.800 C 115.464 316.800,115.600 316.520,115.600 316.177 C 115.600 315.516,118.665 310.942,120.259 309.224 C 120.781 308.661,121.309 307.885,121.431 307.500 C 121.554 307.115,121.822 306.800,122.027 306.800 C 122.232 306.800,122.400 306.524,122.400 306.187 C 122.400 305.851,122.709 305.456,123.087 305.311 C 124.132 304.910,127.200 301.702,127.200 301.011 C 127.200 300.675,127.461 300.400,127.779 300.400 C 128.482 300.400,130.162 298.866,130.517 297.900 C 130.659 297.515,131.077 297.200,131.446 297.200 C 131.815 297.200,132.886 296.570,133.826 295.800 C 134.766 295.030,135.729 294.400,135.967 294.400 C 136.205 294.400,136.400 294.250,136.400 294.068 C 136.400 293.885,136.895 293.481,137.500 293.170 C 138.105 292.860,138.891 292.289,139.247 291.903 C 139.603 291.516,140.188 291.200,140.547 291.200 C 140.906 291.200,141.200 291.020,141.200 290.800 C 141.200 290.580,141.483 290.400,141.829 290.400 C 142.391 290.400,143.600 289.509,143.600 289.095 C 143.600 289.006,143.330 288.933,143.000 288.933 C 142.670 288.933,142.400 289.083,142.400 289.267 M208.267 310.267 C 208.120 310.413,208.000 311.403,208.000 312.467 C 208.000 313.530,207.820 314.400,207.600 314.400 C 207.380 314.400,207.200 315.300,207.200 316.400 C 207.200 317.500,207.020 318.400,206.800 318.400 C 206.580 318.400,206.400 318.839,206.400 319.376 C 206.400 319.913,206.220 320.464,206.000 320.600 C 205.780 320.736,205.600 321.199,205.600 321.629 C 205.600 322.059,205.446 322.723,205.258 323.105 C 205.070 323.487,204.140 325.375,203.191 327.300 C 202.243 329.225,201.317 330.800,201.134 330.800 C 200.950 330.800,200.800 331.072,200.800 331.404 C 200.800 331.736,200.440 332.316,200.000 332.693 C 199.560 333.070,199.198 333.563,199.196 333.789 C 199.194 334.015,198.389 335.100,197.407 336.200 C 196.425 337.300,195.617 338.526,195.611 338.924 C 195.605 339.322,195.422 339.537,195.205 339.403 C 194.979 339.264,194.910 339.421,195.043 339.769 C 195.309 340.460,196.400 339.684,196.400 338.805 C 196.400 338.556,196.567 338.456,196.771 338.582 C 196.975 338.708,197.255 338.458,197.392 338.026 C 197.529 337.594,198.442 336.393,199.421 335.357 C 200.399 334.320,201.200 333.314,201.200 333.120 C 201.200 332.925,201.560 332.380,202.000 331.908 C 202.440 331.436,202.800 330.712,202.800 330.301 C 202.800 329.889,202.980 329.664,203.200 329.800 C 203.420 329.936,203.600 329.677,203.600 329.224 C 203.600 328.771,203.780 328.400,204.000 328.400 C 204.220 328.400,204.400 328.040,204.400 327.600 C 204.400 327.160,204.580 326.800,204.800 326.800 C 205.020 326.800,205.200 326.440,205.200 326.000 C 205.200 325.560,205.350 325.200,205.533 325.200 C 205.717 325.200,205.874 324.975,205.882 324.700 C 205.890 324.425,206.278 323.255,206.743 322.100 C 207.208 320.945,207.479 320.000,207.345 320.000 C 207.211 320.000,207.268 319.775,207.472 319.500 C 207.675 319.225,207.894 318.370,207.959 317.600 C 208.024 316.830,208.284 315.940,208.538 315.623 C 208.895 315.177,208.886 315.115,208.500 315.347 C 208.225 315.512,208.000 315.467,208.000 315.247 C 208.000 315.027,208.149 314.755,208.331 314.643 C 208.653 314.444,208.994 310.000,208.687 310.000 C 208.603 310.000,208.413 310.120,208.267 310.267 M109.600 336.400 C 109.600 336.620,109.870 336.800,110.200 336.800 C 110.530 336.800,110.800 336.620,110.800 336.400 C 110.800 336.180,110.530 336.000,110.200 336.000 C 109.870 336.000,109.600 336.180,109.600 336.400 M109.869 337.500 C 109.541 338.050,109.683 340.193,110.078 340.682 C 110.293 340.948,110.360 341.340,110.228 341.555 C 110.095 341.769,110.162 342.053,110.376 342.185 C 110.590 342.317,110.671 342.672,110.555 342.972 C 110.440 343.273,110.538 343.638,110.773 343.783 C 111.008 343.928,111.200 344.397,111.200 344.824 C 111.200 345.251,111.380 345.600,111.600 345.600 C 111.820 345.600,112.000 345.941,112.000 346.357 C 112.000 346.774,112.281 347.222,112.625 347.354 C 112.969 347.486,113.164 347.734,113.059 347.905 C 112.953 348.076,113.480 348.906,114.231 349.750 C 114.982 350.593,115.479 351.472,115.336 351.704 C 115.184 351.949,115.268 352.005,115.538 351.838 C 115.808 351.671,116.000 351.800,116.000 352.149 C 116.000 352.478,116.360 352.860,116.800 353.000 C 117.240 353.140,117.600 353.435,117.600 353.656 C 117.600 353.876,117.870 354.327,118.200 354.657 C 118.530 354.987,118.800 355.163,118.800 355.048 C 118.800 354.932,119.273 355.276,119.850 355.812 C 120.428 356.347,121.058 356.688,121.250 356.569 C 121.443 356.450,121.600 356.553,121.600 356.797 C 121.600 357.042,122.140 357.430,122.800 357.660 C 123.460 357.890,124.000 358.241,124.000 358.439 C 124.000 358.638,124.360 358.800,124.800 358.800 C 125.240 358.800,125.600 358.959,125.600 359.153 C 125.600 359.455,126.554 359.882,127.200 359.869 C 127.310 359.867,127.826 360.093,128.346 360.371 C 129.127 360.789,129.262 360.783,129.115 360.339 C 129.018 360.042,128.454 359.743,127.862 359.673 C 127.271 359.603,126.890 359.378,127.017 359.173 C 127.144 358.968,126.967 358.800,126.624 358.800 C 126.281 358.800,126.000 358.620,126.000 358.400 C 126.000 358.180,125.616 358.000,125.147 358.000 C 124.678 358.000,123.982 357.640,123.600 357.200 C 123.218 356.760,122.432 356.361,121.853 356.313 C 121.207 356.259,120.800 355.986,120.800 355.606 C 120.800 355.266,119.900 354.398,118.800 353.678 C 117.700 352.958,116.800 352.137,116.800 351.854 C 116.800 351.571,116.350 350.917,115.800 350.400 C 115.250 349.883,114.800 349.295,114.800 349.093 C 114.800 348.891,114.440 348.269,114.000 347.709 C 113.560 347.150,113.200 346.356,113.200 345.946 C 113.200 345.536,113.020 345.200,112.800 345.200 C 112.580 345.200,112.400 344.750,112.400 344.200 C 112.400 343.650,112.220 343.200,112.000 343.200 C 111.780 343.200,111.600 342.761,111.600 342.224 C 111.600 341.687,111.420 341.136,111.200 341.000 C 110.980 340.864,110.800 339.953,110.800 338.976 C 110.800 337.388,110.355 336.683,109.869 337.500 M193.426 340.631 C 192.349 341.709,191.871 342.824,192.608 342.542 C 192.953 342.409,193.138 342.204,193.020 342.086 C 192.901 341.968,193.194 341.675,193.671 341.436 C 194.598 340.969,195.132 340.000,194.462 340.000 C 194.239 340.000,193.773 340.284,193.426 340.631 M190.000 344.000 C 189.683 344.440,189.212 344.800,188.954 344.800 C 188.303 344.800,187.938 345.914,188.479 346.249 C 188.748 346.415,188.811 346.341,188.638 346.062 C 188.468 345.786,188.611 345.600,188.995 345.600 C 189.588 345.600,191.600 343.915,191.600 343.418 C 191.600 342.883,190.523 343.275,190.000 344.000 M186.800 346.800 C 186.800 347.020,186.609 347.200,186.377 347.200 C 185.830 347.200,182.800 349.629,182.800 350.067 C 182.800 350.250,183.070 350.400,183.400 350.400 C 183.730 350.400,184.000 350.220,184.000 350.000 C 184.000 349.780,184.270 349.600,184.600 349.600 C 184.930 349.600,185.200 349.420,185.200 349.200 C 185.200 348.980,185.470 348.800,185.800 348.800 C 186.130 348.800,186.400 348.654,186.400 348.475 C 186.400 348.297,186.767 347.757,187.216 347.275 C 187.869 346.574,187.909 346.400,187.416 346.400 C 187.077 346.400,186.800 346.580,186.800 346.800 M180.600 351.074 C 178.312 352.299,177.506 353.082,178.316 353.294 C 179.037 353.483,180.000 352.760,180.000 352.029 C 180.000 351.807,180.256 351.723,180.569 351.844 C 180.895 351.969,181.329 351.707,181.583 351.231 C 182.108 350.251,182.131 350.255,180.600 351.074 M176.111 353.732 C 176.294 354.283,177.156 354.360,177.300 353.838 C 177.355 353.639,177.075 353.429,176.677 353.370 C 176.270 353.310,176.023 353.468,176.111 353.732 M172.100 355.482 C 171.605 355.578,171.200 355.790,171.200 355.953 C 171.200 356.117,170.570 356.498,169.800 356.800 C 168.322 357.380,167.835 358.214,169.200 357.827 C 169.640 357.702,170.360 357.498,170.800 357.373 C 171.240 357.248,171.600 356.984,171.600 356.786 C 171.600 356.587,171.870 356.529,172.200 356.655 C 172.572 356.798,172.800 356.654,172.800 356.276 C 172.800 355.941,173.025 355.576,173.300 355.465 C 173.884 355.229,173.376 355.237,172.100 355.482 M165.800 358.400 C 165.660 358.627,165.996 358.800,166.576 358.800 C 167.139 358.800,167.600 358.620,167.600 358.400 C 167.600 358.180,167.251 358.000,166.824 358.000 C 166.397 358.000,165.936 358.180,165.800 358.400 M163.200 359.200 C 163.200 359.420,162.559 359.600,161.776 359.600 C 160.929 359.600,160.453 359.762,160.600 360.000 C 160.736 360.220,161.467 360.400,162.224 360.400 C 162.981 360.400,163.600 360.220,163.600 360.000 C 163.600 359.780,163.881 359.600,164.224 359.600 C 164.567 359.600,164.736 359.420,164.600 359.200 C 164.464 358.980,164.093 358.800,163.776 358.800 C 163.459 358.800,163.200 358.980,163.200 359.200 M129.600 360.753 C 129.600 361.160,130.875 361.630,132.577 361.850 C 133.225 361.934,133.859 362.172,133.987 362.379 C 134.296 362.879,138.400 362.834,138.400 362.331 C 138.400 362.106,137.548 362.007,136.400 362.098 C 134.928 362.216,134.400 362.118,134.400 361.729 C 134.400 361.408,133.928 361.200,133.200 361.200 C 132.540 361.200,132.000 361.020,132.000 360.800 C 132.000 360.580,131.460 360.400,130.800 360.400 C 130.140 360.400,129.600 360.559,129.600 360.753 M157.600 360.800 C 157.600 361.020,156.700 361.200,155.600 361.200 C 154.258 361.200,153.633 361.358,153.700 361.679 C 153.772 362.026,152.945 362.127,150.700 362.046 C 148.525 361.967,147.600 362.075,147.600 362.405 C 147.600 362.909,154.412 362.851,154.800 362.344 C 154.910 362.200,155.540 362.019,156.200 361.942 C 156.860 361.866,157.497 361.673,157.616 361.514 C 157.734 361.355,158.397 361.182,159.088 361.130 C 159.779 361.077,160.256 360.891,160.149 360.717 C 159.863 360.255,157.600 360.328,157.600 360.800 " stroke="none" fill="#40b4fc" fill-rule="evenodd"></path><path id="path2" d="M176.095 35.829 C 176.366 36.099,194.476 36.058,194.747 35.786 C 194.850 35.684,190.643 35.600,185.400 35.600 C 180.157 35.600,175.970 35.703,176.095 35.829 M202.691 35.889 C 203.401 35.977,204.661 35.979,205.491 35.892 C 206.321 35.805,205.740 35.733,204.200 35.731 C 202.660 35.729,201.981 35.800,202.691 35.889 M199.043 37.433 C 198.607 38.568,198.764 286.400,199.200 286.400 C 199.886 286.400,199.637 287.134,198.900 287.287 C 198.331 287.405,198.368 287.478,199.100 287.679 C 200.070 287.944,200.393 286.953,199.596 286.156 C 199.326 285.886,199.227 244.639,199.296 161.276 C 199.353 92.814,199.374 36.800,199.343 36.800 C 199.311 36.800,199.176 37.085,199.043 37.433 M195.342 40.600 C 195.341 42.580,195.408 43.440,195.492 42.512 C 195.576 41.584,195.577 39.964,195.495 38.912 C 195.412 37.860,195.343 38.620,195.342 40.600 M208.996 39.207 C 208.858 39.430,208.577 39.509,208.372 39.383 C 207.885 39.082,207.904 40.032,208.400 40.800 C 208.720 41.295,208.789 41.256,208.794 40.580 C 208.797 40.129,209.016 39.544,209.280 39.280 C 209.544 39.016,209.645 38.800,209.504 38.800 C 209.363 38.800,209.134 38.983,208.996 39.207 M208.800 46.327 C 208.800 47.335,209.434 47.810,209.734 47.027 C 209.854 46.714,209.693 46.243,209.376 45.980 C 208.906 45.590,208.800 45.654,208.800 46.327 M209.754 51.776 C 209.632 52.092,209.723 52.677,209.954 53.076 C 210.312 53.691,210.378 53.605,210.388 52.500 C 210.401 51.129,210.124 50.812,209.754 51.776 M210.680 58.291 C 210.990 60.300,211.200 60.461,211.200 58.690 C 211.200 57.897,211.031 57.143,210.824 57.015 C 210.599 56.876,210.541 57.391,210.680 58.291 M211.200 60.976 C 211.200 61.293,211.380 61.664,211.600 61.800 C 211.820 61.936,212.000 61.677,212.000 61.224 C 212.000 60.771,211.820 60.400,211.600 60.400 C 211.380 60.400,211.200 60.659,211.200 60.976 M213.062 67.800 C 213.195 68.460,213.460 69.171,213.652 69.380 C 213.843 69.589,214.014 70.129,214.032 70.580 C 214.051 71.077,214.148 71.188,214.278 70.861 C 214.396 70.564,214.314 69.934,214.094 69.461 C 213.875 68.987,213.499 68.150,213.259 67.600 C 212.838 66.639,212.831 66.647,213.062 67.800 M218.015 80.200 C 218.017 80.420,218.386 81.050,218.836 81.600 C 219.379 82.264,219.515 82.331,219.240 81.800 C 218.566 80.495,218.012 79.772,218.015 80.200 M181.443 83.833 C 181.309 84.181,181.200 84.890,181.200 85.409 C 181.200 85.928,181.020 86.464,180.800 86.600 C 180.580 86.736,180.400 87.051,180.400 87.300 C 180.400 87.549,180.664 87.404,180.987 86.976 C 181.310 86.549,181.580 85.705,181.587 85.100 C 181.594 84.495,181.780 84.000,182.000 84.000 C 182.220 84.000,182.400 83.820,182.400 83.600 C 182.400 82.967,181.711 83.135,181.443 83.833 M113.384 103.800 C 113.384 113.920,113.436 118.003,113.500 112.873 C 113.563 107.742,113.563 99.462,113.500 94.473 C 113.436 89.483,113.384 93.680,113.384 103.800 M175.200 90.400 C 175.200 90.663,166.000 90.800,148.400 90.800 C 133.660 90.800,121.600 90.935,121.600 91.100 C 121.600 91.742,175.068 91.241,175.605 90.594 C 175.948 90.181,175.961 90.000,175.649 90.000 C 175.402 90.000,175.200 90.180,175.200 90.400 M230.029 97.293 C 230.375 97.572,230.865 98.160,231.117 98.600 C 231.571 99.392,231.576 99.391,231.588 98.564 C 231.596 98.027,231.207 97.560,230.500 97.258 C 229.603 96.874,229.516 96.880,230.029 97.293 M234.932 102.946 C 235.335 103.270,235.930 103.865,236.254 104.268 C 236.803 104.949,236.814 104.938,236.413 104.109 C 236.176 103.619,235.581 103.024,235.091 102.787 C 234.262 102.386,234.251 102.397,234.932 102.946 M244.134 112.227 C 244.002 112.572,244.053 113.012,244.247 113.206 C 244.451 113.410,244.624 113.146,244.658 112.580 C 244.723 111.463,244.488 111.305,244.134 112.227 M174.257 116.308 C 174.071 116.609,174.366 116.861,175.084 117.013 C 175.698 117.143,176.830 117.512,177.600 117.833 C 178.801 118.334,178.896 118.335,178.268 117.841 C 177.865 117.524,177.267 116.935,176.938 116.532 C 176.609 116.130,176.455 116.025,176.594 116.300 C 176.763 116.634,176.518 116.800,175.857 116.800 C 175.312 116.800,174.795 116.584,174.707 116.320 C 174.585 115.955,174.477 115.952,174.257 116.308 M248.153 117.091 C 248.907 117.981,249.628 117.974,249.568 117.076 C 249.547 116.757,249.468 116.773,249.327 117.124 C 249.165 117.529,248.921 117.484,248.259 116.924 L 247.400 116.200 248.153 117.091 M252.140 121.806 C 252.538 122.097,253.130 122.665,253.454 123.068 C 254.008 123.756,254.019 123.749,253.636 122.953 C 253.412 122.487,253.319 122.014,253.431 121.902 C 253.542 121.791,253.134 121.604,252.524 121.488 C 251.524 121.296,251.486 121.328,252.140 121.806 M182.084 123.015 C 181.652 123.505,181.698 123.600,182.372 123.600 C 182.921 123.600,183.102 123.411,182.945 123.000 C 182.671 122.287,182.727 122.286,182.084 123.015 M208.284 124.400 C 208.048 125.301,208.403 125.437,209.120 124.720 C 209.759 124.081,209.727 123.600,209.047 123.600 C 208.742 123.600,208.399 123.960,208.284 124.400 M217.200 125.520 C 217.200 126.085,218.138 126.800,218.880 126.800 C 219.276 126.800,219.600 126.620,219.600 126.400 C 219.600 126.180,219.240 126.000,218.800 126.000 C 218.360 126.000,218.000 125.820,218.000 125.600 C 218.000 125.380,217.820 125.200,217.600 125.200 C 217.380 125.200,217.200 125.344,217.200 125.520 M221.675 127.495 C 221.749 127.878,222.167 128.236,222.605 128.292 C 223.393 128.392,223.393 128.390,222.600 128.025 C 221.882 127.694,221.874 127.653,222.524 127.628 C 223.385 127.595,223.024 126.800,222.147 126.800 C 221.787 126.800,221.596 127.082,221.675 127.495 M258.000 128.197 C 258.550 128.842,259.696 130.096,260.547 130.985 L 262.095 132.600 260.747 130.810 C 259.194 128.746,258.888 128.415,257.798 127.612 C 257.214 127.182,257.269 127.339,258.000 128.197 M235.400 133.350 C 236.060 133.912,236.780 134.372,237.000 134.373 C 237.457 134.375,236.196 133.342,235.000 132.735 C 234.560 132.512,234.740 132.788,235.400 133.350 M263.755 134.919 C 264.603 135.953,265.380 136.800,265.482 136.800 C 265.755 136.800,263.221 133.660,262.677 133.324 C 262.422 133.166,262.907 133.884,263.755 134.919 M237.964 134.957 C 238.481 135.580,240.128 136.130,239.777 135.563 C 239.654 135.363,239.293 135.200,238.976 135.200 C 238.659 135.200,238.400 135.020,238.400 134.800 C 238.400 134.580,238.198 134.400,237.951 134.400 C 237.625 134.400,237.629 134.553,237.964 134.957 M243.456 138.998 C 243.315 139.367,243.439 139.483,243.820 139.337 C 244.139 139.214,244.400 139.314,244.400 139.557 C 244.400 139.801,244.580 140.000,244.800 140.000 C 245.450 140.000,245.258 139.429,244.436 138.915 C 243.824 138.533,243.628 138.550,243.456 138.998 M248.800 143.209 C 248.800 143.661,249.069 144.000,249.429 144.000 C 250.157 144.000,250.931 144.699,251.310 145.700 C 251.456 146.085,251.840 146.400,252.165 146.400 C 252.489 146.400,253.031 146.794,253.368 147.276 C 253.706 147.758,254.067 148.066,254.172 147.961 C 254.277 147.856,253.111 146.566,251.581 145.094 C 249.446 143.040,248.800 142.602,248.800 143.209 M254.709 148.816 C 255.209 149.017,255.723 149.455,255.852 149.790 C 255.980 150.126,256.278 150.400,256.513 150.400 C 256.747 150.400,256.517 149.950,256.000 149.400 C 255.483 148.850,254.777 148.411,254.430 148.425 C 254.034 148.441,254.138 148.586,254.709 148.816 M276.638 153.915 C 277.052 154.638,277.450 155.049,277.524 154.829 C 277.597 154.608,277.259 154.017,276.772 153.514 L 275.886 152.600 276.638 153.915 M279.605 159.810 C 279.602 160.036,280.134 161.296,280.787 162.610 C 281.441 163.925,281.981 165.304,281.987 165.676 C 281.994 166.048,282.147 166.444,282.328 166.555 C 282.709 166.791,282.418 164.298,282.029 164.000 C 281.886 163.890,281.283 162.810,280.690 161.600 C 280.096 160.390,279.608 159.585,279.605 159.810 M269.202 169.439 C 269.200 169.937,270.376 172.400,270.617 172.400 C 270.812 172.400,270.413 171.328,269.724 170.000 C 269.438 169.450,269.204 169.197,269.202 169.439 M272.400 177.400 C 272.400 177.950,272.555 178.400,272.745 178.400 C 272.934 178.400,273.003 177.950,272.898 177.400 C 272.793 176.850,272.638 176.400,272.553 176.400 C 272.469 176.400,272.400 176.850,272.400 177.400 M273.228 179.476 C 273.213 179.958,273.380 180.464,273.600 180.600 C 274.073 180.892,274.073 180.501,273.600 179.400 C 273.269 178.629,273.255 178.631,273.228 179.476 M276.406 193.100 C 276.403 193.595,276.580 194.000,276.800 194.000 C 277.301 194.000,277.301 193.576,276.800 192.800 C 276.486 192.315,276.411 192.372,276.406 193.100 M287.673 195.458 C 287.743 196.306,287.980 196.955,288.200 196.900 C 288.795 196.751,288.684 194.295,288.073 194.091 C 287.685 193.962,287.580 194.321,287.673 195.458 M277.200 198.976 C 277.200 199.539,276.975 200.003,276.700 200.006 C 276.165 200.013,277.142 200.782,277.700 200.794 C 278.151 200.803,278.061 198.485,277.600 198.200 C 277.373 198.060,277.200 198.396,277.200 198.976 M287.600 199.700 C 287.600 200.012,287.875 200.267,288.211 200.267 C 288.903 200.267,288.800 199.533,288.075 199.292 C 287.814 199.205,287.600 199.388,287.600 199.700 M287.095 207.093 C 287.007 207.262,286.918 208.120,286.899 209.000 C 286.864 210.523,286.877 210.541,287.167 209.365 C 287.335 208.686,287.594 207.933,287.743 207.693 C 287.891 207.452,287.843 207.150,287.634 207.021 C 287.426 206.892,287.183 206.925,287.095 207.093 M286.446 212.867 C 286.421 213.234,286.296 213.864,286.170 214.267 C 285.952 214.962,285.963 214.963,286.397 214.287 C 286.648 213.896,286.773 213.266,286.673 212.887 C 286.511 212.268,286.488 212.266,286.446 212.867 M277.400 214.000 C 277.264 214.220,277.254 214.564,277.378 214.764 C 277.695 215.278,277.189 216.441,276.763 216.177 C 276.568 216.057,276.519 216.246,276.654 216.597 C 277.011 217.526,277.902 216.169,277.901 214.700 C 277.900 213.520,277.791 213.368,277.400 214.000 M276.688 221.333 C 276.210 222.549,276.324 223.573,276.839 222.687 C 277.067 222.296,277.191 221.666,277.115 221.287 C 276.988 220.660,276.951 220.664,276.688 221.333 M282.992 228.824 C 282.846 229.284,282.833 229.767,282.963 229.897 C 283.094 230.027,283.200 229.848,283.200 229.500 C 283.200 229.152,283.416 228.795,283.680 228.707 C 284.030 228.590,284.038 228.471,283.709 228.267 C 283.447 228.105,283.146 228.339,282.992 228.824 M282.414 231.174 C 282.186 231.599,282.000 232.309,282.000 232.750 C 282.000 233.192,281.841 233.651,281.646 233.771 C 281.451 233.892,281.214 234.523,281.118 235.174 C 281.023 235.825,281.092 236.267,281.272 236.155 C 281.453 236.044,281.600 235.513,281.600 234.976 C 281.600 234.439,281.780 234.000,282.000 234.000 C 282.220 234.000,282.400 233.460,282.400 232.800 C 282.400 232.140,282.550 231.600,282.733 231.600 C 282.917 231.600,283.067 231.330,283.067 231.000 C 283.067 230.202,282.912 230.244,282.414 231.174 M274.000 234.200 C 274.000 234.750,274.069 235.200,274.153 235.200 C 274.238 235.200,274.393 234.750,274.498 234.200 C 274.603 233.650,274.534 233.200,274.345 233.200 C 274.155 233.200,274.000 233.650,274.000 234.200 M273.228 236.900 C 273.252 237.989,273.312 238.070,273.600 237.400 C 274.075 236.295,274.075 235.600,273.600 235.600 C 273.380 235.600,273.213 236.185,273.228 236.900 M280.320 237.600 C 280.180 238.150,279.943 239.050,279.795 239.600 C 279.557 240.486,279.600 240.466,280.180 239.421 C 280.540 238.772,280.777 237.872,280.705 237.421 C 280.590 236.691,280.548 236.710,280.320 237.600 M272.667 239.067 C 272.520 239.213,272.411 239.708,272.425 240.167 C 272.449 240.933,272.482 240.923,272.834 240.042 C 273.226 239.063,273.144 238.589,272.667 239.067 M271.600 242.600 C 271.600 243.150,271.669 243.600,271.753 243.600 C 271.838 243.600,271.993 243.150,272.098 242.600 C 272.203 242.050,272.134 241.600,271.945 241.600 C 271.755 241.600,271.600 242.050,271.600 242.600 M269.918 247.579 C 269.823 248.227,269.871 248.680,270.025 248.585 C 270.425 248.338,270.749 246.400,270.390 246.400 C 270.225 246.400,270.013 246.930,269.918 247.579 M268.855 250.521 C 268.568 251.225,268.179 252.160,267.992 252.600 C 267.804 253.040,267.548 253.850,267.423 254.400 L 267.196 255.400 267.646 254.400 C 267.893 253.850,268.254 252.995,268.448 252.500 C 268.642 252.005,269.010 251.150,269.267 250.601 C 269.524 250.051,269.654 249.521,269.555 249.422 C 269.457 249.324,269.142 249.818,268.855 250.521 M174.800 276.400 C 174.800 276.620,175.351 276.800,176.024 276.800 C 176.737 276.800,177.144 276.633,177.000 276.400 C 176.864 276.180,176.313 276.000,175.776 276.000 C 175.239 276.000,174.800 276.180,174.800 276.400 M261.280 279.680 C 261.016 279.944,260.800 280.448,260.800 280.800 C 260.800 281.152,260.575 281.692,260.300 282.001 C 259.875 282.478,259.904 282.482,260.500 282.032 C 260.885 281.740,261.200 281.200,261.200 280.831 C 261.200 280.462,261.416 279.944,261.680 279.680 C 261.944 279.416,262.070 279.200,261.960 279.200 C 261.850 279.200,261.544 279.416,261.280 279.680 M171.684 280.615 C 171.251 281.106,171.303 281.200,172.008 281.200 C 172.469 281.200,172.736 281.020,172.600 280.800 C 172.464 280.580,172.533 280.400,172.753 280.400 C 172.973 280.400,173.264 280.580,173.400 280.800 C 173.536 281.020,174.222 281.179,174.924 281.154 C 175.764 281.123,175.927 281.042,175.400 280.915 C 174.960 280.809,174.429 280.560,174.220 280.361 C 173.647 279.817,172.266 279.955,171.684 280.615 M182.000 280.832 C 182.000 280.993,181.595 281.047,181.100 280.951 C 180.240 280.785,180.237 280.794,181.028 281.149 C 181.483 281.354,183.013 281.604,184.428 281.705 C 185.843 281.806,186.415 281.813,185.700 281.720 C 184.985 281.627,184.400 281.403,184.400 281.221 C 184.400 281.040,183.860 280.812,183.200 280.715 C 182.540 280.618,182.000 280.671,182.000 280.832 M165.200 281.200 C 165.200 281.420,164.390 281.600,163.400 281.600 C 162.410 281.600,161.600 281.767,161.600 281.972 C 161.600 282.177,161.285 282.422,160.900 282.517 C 160.515 282.612,160.650 282.615,161.200 282.523 C 161.750 282.431,163.274 282.183,164.586 281.972 C 167.306 281.534,168.492 280.800,166.480 280.800 C 165.776 280.800,165.200 280.980,165.200 281.200 M187.698 282.100 C 187.788 282.375,188.388 282.659,189.031 282.731 C 189.674 282.803,190.371 283.028,190.580 283.231 C 190.789 283.434,191.263 283.600,191.634 283.600 C 192.005 283.600,192.811 283.861,193.426 284.180 C 194.040 284.498,194.736 284.633,194.971 284.480 C 195.207 284.326,194.905 284.143,194.300 284.073 C 193.695 284.004,193.200 283.779,193.200 283.573 C 193.200 283.368,192.660 283.200,192.000 283.200 C 191.340 283.200,190.800 283.020,190.800 282.800 C 190.800 282.580,190.260 282.400,189.600 282.400 C 188.940 282.400,188.400 282.220,188.400 282.000 C 188.400 281.780,188.205 281.600,187.967 281.600 C 187.728 281.600,187.607 281.825,187.698 282.100 M158.400 282.800 C 158.400 283.020,157.849 283.200,157.176 283.200 C 156.463 283.200,156.056 283.367,156.200 283.600 C 156.454 284.011,155.113 284.194,153.057 284.029 C 152.324 283.970,152.010 284.092,152.181 284.369 C 152.327 284.606,152.246 284.800,152.000 284.800 C 151.754 284.800,151.671 284.991,151.815 285.224 C 151.981 285.493,152.291 285.383,152.664 284.924 C 153.034 284.467,153.320 284.365,153.441 284.647 C 153.631 285.094,156.012 284.522,156.659 283.874 C 156.810 283.723,157.229 283.600,157.590 283.600 C 158.568 283.600,160.056 282.430,159.100 282.413 C 158.715 282.406,158.400 282.580,158.400 282.800 M195.730 284.711 C 195.417 284.910,195.695 285.297,196.560 285.863 C 197.840 286.703,198.531 285.927,197.411 284.908 C 197.224 284.739,197.212 284.842,197.383 285.138 C 197.607 285.525,197.484 285.631,196.947 285.515 C 196.536 285.425,196.245 285.138,196.300 284.876 C 196.416 284.323,196.364 284.308,195.730 284.711 M150.072 285.634 C 149.616 286.363,149.637 286.451,150.238 286.334 C 150.615 286.260,150.970 285.885,151.027 285.500 C 151.165 284.553,150.707 284.617,150.072 285.634 M137.390 293.216 C 137.248 293.445,136.803 293.528,136.400 293.400 C 135.997 293.272,135.534 293.383,135.372 293.646 C 135.176 293.963,135.247 294.018,135.583 293.811 C 135.862 293.638,136.207 293.688,136.351 293.921 C 136.521 294.195,136.963 294.076,137.606 293.581 C 138.153 293.161,138.386 292.814,138.124 292.809 C 137.862 292.804,137.531 292.987,137.390 293.216 M132.719 295.905 C 133.337 296.341,132.697 297.020,131.445 297.257 C 131.030 297.336,130.535 297.850,130.345 298.400 C 130.006 299.384,130.011 299.387,130.700 298.600 C 131.085 298.160,131.899 297.542,132.509 297.228 C 133.658 296.635,133.774 295.965,132.775 295.695 C 132.323 295.572,132.311 295.618,132.719 295.905 M127.200 300.800 C 127.200 301.301,127.624 301.301,128.400 300.800 C 128.885 300.486,128.828 300.411,128.100 300.406 C 127.605 300.403,127.200 300.580,127.200 300.800 M121.721 305.728 C 121.584 305.949,121.680 305.998,121.938 305.838 C 122.212 305.669,122.400 305.807,122.400 306.176 C 122.400 306.519,122.239 306.800,122.043 306.800 C 121.846 306.800,121.576 307.115,121.441 307.500 C 121.295 307.917,121.601 307.747,122.198 307.078 C 122.749 306.460,123.200 305.815,123.200 305.644 C 123.200 305.194,122.009 305.262,121.721 305.728 M207.449 313.130 C 207.272 313.642,207.233 314.167,207.363 314.297 C 207.778 314.711,208.070 314.100,207.918 313.134 L 207.771 312.200 207.449 313.130 M196.125 337.300 C 195.288 338.225,194.588 340.178,195.237 339.777 C 195.437 339.654,195.600 339.260,195.600 338.902 C 195.600 338.544,195.991 337.835,196.470 337.326 C 196.948 336.817,197.249 336.400,197.139 336.400 C 197.029 336.400,196.573 336.805,196.125 337.300 M192.813 340.776 C 192.517 341.330,192.530 341.633,192.861 341.838 C 193.135 342.007,193.216 341.949,193.058 341.694 C 192.912 341.458,193.077 340.980,193.425 340.632 C 193.773 340.285,193.871 340.000,193.643 340.000 C 193.415 340.000,193.041 340.349,192.813 340.776 M187.596 345.804 C 187.194 346.289,187.219 346.400,187.727 346.400 C 188.474 346.400,188.962 345.748,188.452 345.432 C 188.253 345.309,187.868 345.477,187.596 345.804 M184.786 347.751 C 184.464 348.053,183.278 348.923,182.152 349.684 C 180.207 350.997,180.162 351.067,181.252 351.067 C 181.883 351.067,182.400 350.896,182.400 350.687 C 182.400 350.478,183.165 349.608,184.100 348.754 C 185.035 347.899,185.703 347.200,185.586 347.200 C 185.468 347.200,185.108 347.448,184.786 347.751 M115.725 350.322 C 116.316 350.939,116.800 351.637,116.800 351.873 C 116.800 352.109,117.071 352.527,117.403 352.802 C 117.932 353.241,117.944 353.185,117.503 352.339 C 116.806 351.003,115.350 349.200,114.968 349.200 C 114.793 349.200,115.134 349.705,115.725 350.322 M178.200 352.036 C 177.980 352.254,177.474 352.656,177.075 352.929 C 176.393 353.396,176.402 353.430,177.220 353.492 C 177.699 353.528,177.988 353.454,177.862 353.329 C 177.737 353.203,178.031 352.769,178.517 352.364 C 179.003 351.958,179.220 351.630,179.000 351.633 C 178.780 351.637,178.420 351.818,178.200 352.036 M175.606 353.500 C 175.603 353.775,175.330 354.000,175.000 354.000 C 174.670 354.000,174.400 354.180,174.400 354.400 C 174.400 354.620,174.051 354.800,173.624 354.800 C 172.686 354.800,172.342 355.259,172.766 355.944 C 173.002 356.326,173.364 356.213,174.239 355.485 C 174.878 354.954,175.619 354.447,175.887 354.360 C 176.218 354.251,176.252 354.008,175.993 353.600 C 175.740 353.201,175.610 353.168,175.606 353.500 M120.800 355.548 C 120.800 356.561,121.182 356.787,122.200 356.378 C 122.640 356.201,122.788 356.044,122.529 356.028 C 122.269 356.013,121.774 355.717,121.429 355.371 C 120.857 354.800,120.800 354.816,120.800 355.548 M129.108 360.490 C 129.236 360.979,129.414 361.159,129.503 360.890 C 129.593 360.620,129.932 360.400,130.257 360.400 C 130.582 360.400,130.736 360.220,130.600 360.000 C 130.077 359.154,128.863 359.553,129.108 360.490 M159.400 360.000 C 159.264 360.220,159.354 360.400,159.600 360.400 C 159.846 360.400,159.946 360.564,159.822 360.765 C 159.632 361.072,159.908 361.086,161.149 360.831 C 161.425 360.774,160.305 359.600,159.975 359.600 C 159.795 359.600,159.536 359.780,159.400 360.000 M156.200 360.800 C 156.064 361.020,156.323 361.200,156.776 361.200 C 157.229 361.200,157.600 361.410,157.600 361.667 C 157.600 361.923,157.694 362.039,157.809 361.924 C 157.925 361.809,157.905 361.419,157.767 361.057 C 157.487 360.328,156.583 360.180,156.200 360.800 M134.400 361.685 C 134.400 361.984,134.762 362.229,135.205 362.229 C 136.150 362.229,136.039 361.459,135.067 361.271 C 134.700 361.200,134.400 361.386,134.400 361.685 M140.800 362.391 C 140.800 362.586,142.060 362.720,143.600 362.689 C 145.140 362.658,146.400 362.503,146.400 362.345 C 146.400 362.186,145.140 362.052,143.600 362.047 C 142.060 362.042,140.800 362.197,140.800 362.391 " stroke="none" fill="#21a7fc" fill-rule="evenodd"></path><path id="path3" d="M199.400 36.513 C 198.960 36.958,198.780 37.222,199.000 37.100 C 199.266 36.951,199.365 78.384,199.296 161.138 C 199.239 229.482,199.293 285.665,199.417 285.989 C 200.298 288.288,200.391 276.358,200.389 161.072 C 200.388 92.692,200.483 36.589,200.600 36.400 C 201.057 35.661,200.157 35.746,199.400 36.513 M207.701 37.400 C 207.705 38.280,207.787 38.593,207.883 38.095 C 207.979 37.598,207.975 36.878,207.875 36.495 C 207.775 36.113,207.696 36.520,207.701 37.400 M194.937 40.600 C 194.939 42.360,195.009 43.030,195.093 42.089 C 195.178 41.149,195.177 39.709,195.091 38.889 C 195.005 38.070,194.936 38.840,194.937 40.600 M208.274 43.044 C 208.533 46.764,208.731 47.153,208.762 44.000 C 208.776 42.570,208.629 41.150,208.435 40.844 C 208.222 40.507,208.159 41.375,208.274 43.044 M181.447 44.221 C 181.311 44.575,181.214 53.716,181.232 64.533 C 181.249 75.350,181.354 83.975,181.465 83.700 C 181.576 83.425,181.922 83.200,182.233 83.200 C 183.057 83.200,183.058 45.374,182.235 44.288 C 181.749 43.649,181.670 43.642,181.447 44.221 M209.314 50.600 C 209.317 51.700,209.395 52.103,209.487 51.495 C 209.579 50.886,209.577 49.986,209.482 49.495 C 209.387 49.003,209.311 49.500,209.314 50.600 M210.101 55.800 C 210.105 56.680,210.187 56.993,210.283 56.495 C 210.379 55.998,210.375 55.278,210.275 54.895 C 210.175 54.513,210.096 54.920,210.101 55.800 M176.200 89.600 C 176.064 89.820,176.323 90.000,176.776 90.000 C 177.229 90.000,177.600 89.820,177.600 89.600 C 177.600 89.380,177.341 89.200,177.024 89.200 C 176.707 89.200,176.336 89.380,176.200 89.600 M245.200 114.468 C 246.202 115.445,246.710 115.625,246.218 114.829 C 246.073 114.595,245.560 114.199,245.078 113.949 C 244.283 113.536,244.294 113.585,245.200 114.468 M121.200 116.432 C 121.200 117.010,121.980 117.251,122.647 116.878 C 123.192 116.573,123.126 116.479,122.250 116.312 C 121.672 116.201,121.200 116.255,121.200 116.432 M141.000 116.806 C 142.096 117.285,175.141 117.261,174.384 116.781 C 174.049 116.570,166.620 116.422,157.000 116.434 C 147.049 116.447,140.526 116.599,141.000 116.806 M209.600 124.000 C 209.600 124.220,209.870 124.400,210.200 124.400 C 210.530 124.400,210.800 124.220,210.800 124.000 C 210.800 123.780,210.530 123.600,210.200 123.600 C 209.870 123.600,209.600 123.780,209.600 124.000 M211.200 124.055 C 211.200 124.245,211.650 124.400,212.200 124.400 C 212.750 124.400,213.200 124.331,213.200 124.247 C 213.200 124.162,212.750 124.007,212.200 123.902 C 211.650 123.797,211.200 123.866,211.200 124.055 M149.273 124.299 C 153.604 124.364,160.804 124.364,165.273 124.300 C 169.743 124.235,166.200 124.182,157.400 124.182 C 148.600 124.182,144.943 124.235,149.273 124.299 M214.000 124.800 C 214.000 125.020,214.855 125.179,215.900 125.153 C 217.596 125.110,217.671 125.073,216.600 124.800 C 214.831 124.350,214.000 124.350,214.000 124.800 M218.000 125.655 C 218.000 125.845,218.450 126.000,219.000 126.000 C 219.550 126.000,220.000 125.931,220.000 125.847 C 220.000 125.762,219.550 125.607,219.000 125.502 C 218.450 125.397,218.000 125.466,218.000 125.655 M223.003 127.205 C 223.137 127.422,223.597 127.600,224.024 127.600 C 224.451 127.600,224.800 127.780,224.800 128.000 C 224.800 128.220,225.235 128.400,225.767 128.400 C 226.298 128.400,226.824 128.625,226.935 128.900 C 227.093 129.292,227.144 129.289,227.168 128.887 C 227.186 128.606,226.885 128.274,226.500 128.151 C 226.115 128.028,225.440 127.780,225.000 127.600 C 223.373 126.934,222.761 126.813,223.003 127.205 M228.600 129.600 C 229.941 130.488,230.400 130.590,230.400 130.000 C 230.400 129.780,230.051 129.600,229.624 129.600 C 229.197 129.600,228.736 129.420,228.600 129.200 C 228.464 128.980,228.138 128.801,227.876 128.803 C 227.614 128.804,227.940 129.163,228.600 129.600 M231.411 130.934 C 232.578 131.723,233.600 132.028,233.600 131.587 C 233.600 131.374,233.251 131.200,232.824 131.200 C 232.397 131.200,231.936 131.020,231.800 130.800 C 231.664 130.580,231.343 130.400,231.087 130.400 C 230.831 130.400,230.977 130.640,231.411 130.934 M247.185 141.171 C 247.947 141.847,248.742 142.400,248.952 142.400 C 249.162 142.400,249.258 142.348,249.167 142.284 C 249.075 142.220,248.280 141.667,247.400 141.055 L 245.800 139.942 247.185 141.171 M181.352 174.581 C 181.079 175.292,181.479 176.011,182.124 175.968 C 182.467 175.946,182.461 175.881,182.100 175.735 C 181.825 175.624,181.600 175.293,181.600 175.000 C 181.600 174.707,181.825 174.376,182.100 174.265 C 182.492 174.107,182.489 174.056,182.087 174.032 C 181.806 174.014,181.475 174.261,181.352 174.581 M274.000 181.376 C 274.000 181.913,274.147 182.444,274.328 182.555 C 274.508 182.667,274.577 182.227,274.482 181.579 C 274.272 180.149,274.000 180.035,274.000 181.376 M286.856 184.800 C 286.856 185.130,287.011 185.760,287.200 186.200 C 287.417 186.704,287.544 186.778,287.544 186.400 C 287.544 186.070,287.389 185.440,287.200 185.000 C 286.983 184.496,286.856 184.422,286.856 184.800 M275.600 187.800 C 275.600 188.350,275.755 188.800,275.945 188.800 C 276.134 188.800,276.203 188.350,276.098 187.800 C 275.993 187.250,275.838 186.800,275.753 186.800 C 275.669 186.800,275.600 187.250,275.600 187.800 M276.406 191.033 C 276.409 191.675,276.584 192.470,276.795 192.800 C 277.055 193.209,277.099 192.890,276.932 191.800 C 276.629 189.823,276.398 189.486,276.406 191.033 M278.134 207.200 C 278.134 208.850,278.205 209.525,278.291 208.700 C 278.378 207.875,278.378 206.525,278.291 205.700 C 278.205 204.875,278.134 205.550,278.134 207.200 M277.500 216.231 C 277.335 216.397,277.205 216.998,277.212 217.567 C 277.223 218.473,277.275 218.513,277.639 217.887 C 278.095 217.105,277.981 215.746,277.500 216.231 M276.493 224.400 C 276.493 225.170,276.575 225.485,276.676 225.100 C 276.776 224.715,276.776 224.085,276.676 223.700 C 276.575 223.315,276.493 223.630,276.493 224.400 M275.867 226.667 C 275.720 226.813,275.621 227.578,275.646 228.367 L 275.692 229.800 276.004 228.200 C 276.331 226.519,276.305 226.228,275.867 226.667 M274.846 232.467 C 274.821 232.834,274.696 233.464,274.570 233.867 C 274.352 234.562,274.363 234.563,274.797 233.887 C 275.048 233.496,275.173 232.866,275.073 232.487 C 274.911 231.868,274.888 231.866,274.846 232.467 M275.332 251.300 C 274.680 252.192,273.861 253.994,274.033 254.159 C 274.125 254.247,274.586 253.527,275.058 252.560 C 275.920 250.792,276.012 250.370,275.332 251.300 M261.429 268.861 C 261.083 269.555,260.801 270.320,260.802 270.561 C 260.805 271.003,261.614 269.602,262.109 268.300 C 262.549 267.143,262.103 267.511,261.429 268.861 M177.193 276.592 C 177.526 276.993,177.897 277.069,178.346 276.829 C 178.710 276.634,179.547 276.551,180.204 276.646 C 181.371 276.813,181.376 276.807,180.407 276.387 C 179.717 276.088,179.136 276.083,178.507 276.370 C 177.930 276.632,177.600 276.640,177.600 276.391 C 177.600 276.176,177.398 276.000,177.151 276.000 C 176.838 276.000,176.851 276.179,177.193 276.592 M166.400 281.600 C 165.056 282.031,166.508 282.031,168.200 281.600 C 169.278 281.326,169.298 281.294,168.400 281.287 C 167.850 281.283,166.950 281.424,166.400 281.600 M180.200 281.600 C 180.860 281.768,182.120 281.904,183.000 281.903 L 184.600 281.900 182.800 281.580 C 180.357 281.145,178.470 281.160,180.200 281.600 M186.600 281.995 C 185.835 282.269,185.841 282.295,186.730 282.577 C 187.784 282.913,188.084 282.775,187.678 282.143 C 187.520 281.897,187.054 281.833,186.600 281.995 M159.023 283.033 C 158.374 283.507,158.354 283.600,158.900 283.600 C 159.259 283.600,159.671 283.408,159.816 283.173 C 160.240 282.487,159.861 282.420,159.023 283.033 M152.397 285.100 C 152.392 285.547,150.374 286.400,149.320 286.400 C 148.767 286.400,148.400 286.640,148.400 287.003 C 148.400 287.453,148.579 287.512,149.100 287.236 C 149.485 287.032,150.655 286.490,151.700 286.031 C 153.655 285.172,154.048 284.800,153.000 284.800 C 152.670 284.800,152.399 284.935,152.397 285.100 M147.200 287.557 C 147.200 287.754,146.525 288.194,145.700 288.537 C 144.875 288.879,144.434 289.168,144.720 289.179 C 145.485 289.210,147.600 288.042,147.600 287.590 C 147.600 287.375,147.510 287.200,147.400 287.200 C 147.290 287.200,147.200 287.361,147.200 287.557 M142.400 290.233 C 141.842 290.543,141.665 290.785,142.000 290.781 C 142.330 290.778,142.949 290.510,143.376 290.187 C 144.339 289.459,143.745 289.487,142.400 290.233 M124.278 304.613 C 123.660 305.156,123.314 305.600,123.508 305.600 C 123.702 305.600,124.283 305.150,124.800 304.600 C 125.995 303.328,125.731 303.334,124.278 304.613 M206.780 315.890 C 206.671 316.819,206.733 317.427,206.920 317.240 C 207.106 317.054,207.196 316.294,207.119 315.551 C 206.983 314.233,206.975 314.242,206.780 315.890 M110.000 334.000 C 110.000 335.565,110.587 335.564,110.643 333.999 C 110.666 333.340,110.531 332.800,110.343 332.800 C 110.154 332.800,110.000 333.340,110.000 334.000 M194.300 339.267 C 193.767 339.825,193.733 340.000,194.157 340.000 C 194.464 340.000,194.828 339.704,194.967 339.343 C 195.317 338.431,195.120 338.408,194.300 339.267 M189.944 343.187 C 189.425 343.619,189.143 343.979,189.317 343.987 C 189.491 343.994,190.020 343.640,190.492 343.200 C 191.599 342.169,191.179 342.158,189.944 343.187 M186.869 345.831 C 185.917 346.584,185.302 347.200,185.502 347.200 C 185.703 347.200,186.572 346.577,187.433 345.817 C 189.437 344.047,189.114 344.055,186.869 345.831 M113.200 345.889 C 113.200 346.121,113.571 346.736,114.024 347.256 L 114.847 348.200 114.145 347.000 C 113.220 345.421,113.200 345.397,113.200 345.889 M117.200 351.889 C 117.200 352.392,118.343 353.390,118.612 353.121 C 118.718 353.015,118.444 352.602,118.002 352.202 C 117.561 351.803,117.200 351.662,117.200 351.889 M163.800 358.400 C 163.133 358.686,163.221 358.748,164.324 358.772 C 165.110 358.789,165.547 358.638,165.400 358.400 C 165.112 357.934,164.885 357.934,163.800 358.400 M161.200 359.200 L 160.200 359.520 161.300 359.560 C 161.905 359.582,162.400 359.420,162.400 359.200 C 162.400 358.980,162.355 358.818,162.300 358.840 C 162.245 358.862,161.750 359.024,161.200 359.200 M158.200 360.000 C 157.429 360.331,157.431 360.345,158.276 360.372 C 158.758 360.387,159.264 360.220,159.400 360.000 C 159.692 359.527,159.301 359.527,158.200 360.000 M132.752 360.912 C 132.945 361.105,133.619 361.198,134.251 361.119 C 135.309 360.987,135.281 360.959,133.900 360.768 C 133.040 360.649,132.550 360.710,132.752 360.912 M154.600 360.800 L 153.000 361.086 154.476 361.143 C 155.288 361.174,156.064 361.020,156.200 360.800 C 156.336 360.580,156.392 360.426,156.324 360.457 C 156.256 360.488,155.480 360.642,154.600 360.800 M135.824 361.638 C 135.947 361.837,136.787 362.000,137.690 362.000 C 139.721 362.000,139.552 361.781,137.300 361.493 C 136.330 361.369,135.696 361.432,135.824 361.638 M150.200 361.577 L 148.600 361.841 150.700 362.020 C 152.210 362.149,152.800 362.059,152.800 361.700 C 152.800 361.170,152.701 361.165,150.200 361.577 M142.200 361.884 C 142.860 361.987,143.660 362.280,143.977 362.535 C 144.424 362.895,144.486 362.887,144.253 362.500 C 144.039 362.144,144.304 362.000,145.176 362.000 C 145.849 362.000,146.400 362.180,146.400 362.400 C 146.400 362.620,146.681 362.800,147.024 362.800 C 147.367 362.800,147.545 362.635,147.421 362.434 C 147.297 362.233,147.409 361.997,147.670 361.910 C 147.931 361.823,146.537 361.739,144.573 361.724 C 142.608 361.709,141.540 361.781,142.200 361.884 " stroke="none" fill="#12a4fc" fill-rule="evenodd"></path><path id="path4" d="" stroke="none" fill="#0c9cfc" fill-rule="evenodd"></path></g></svg>